<svg width="181" height="362" viewBox="0 0 181 362" fill="none" xmlns="http://www.w3.org/2000/svg">
<rect y="362" width="60.3333" height="60.3333" transform="rotate(-90 0 362)" fill="#694EDA"/>
<rect x="60.333" y="362" width="60.3333" height="60.3333" transform="rotate(-90 60.333 362)" fill="#775AF1"/>
<rect x="120.667" y="362" width="60.3333" height="60.3333" transform="rotate(-90 120.667 362)" fill="#694EDA"/>
<rect y="301.667" width="60.3333" height="60.3333" transform="rotate(-90 0 301.667)" fill="#775AF1"/>
<rect x="60.333" y="301.667" width="60.3333" height="60.3333" transform="rotate(-90 60.333 301.667)" fill="#694EDA"/>
<rect x="120.667" y="301.667" width="60.3333" height="60.3333" transform="rotate(-90 120.667 301.667)" fill="#775AF1"/>
<rect y="241.333" width="60.3333" height="60.3333" transform="rotate(-90 0 241.333)" fill="#694EDA"/>
<rect x="60.333" y="241.333" width="60.3333" height="60.3333" transform="rotate(-90 60.333 241.333)" fill="#775AF1"/>
<rect x="120.667" y="241.333" width="60.3333" height="60.3333" transform="rotate(-90 120.667 241.333)" fill="#694EDA"/>
<rect y="181" width="60.3333" height="60.3333" transform="rotate(-90 0 181)" fill="#775AF1"/>
<rect x="60.333" y="181" width="60.3333" height="60.3333" transform="rotate(-90 60.333 181)" fill="#694EDA"/>
<rect x="120.667" y="181" width="60.3333" height="60.3333" transform="rotate(-90 120.667 181)" fill="#775AF1"/>
<rect y="120.667" width="60.3333" height="60.3333" transform="rotate(-90 0 120.667)" fill="#694EDA"/>
<rect x="60.333" y="120.667" width="60.3333" height="60.3333" transform="rotate(-90 60.333 120.667)" fill="#775AF1"/>
<rect x="120.667" y="120.667" width="60.3333" height="60.3333" transform="rotate(-90 120.667 120.667)" fill="#694EDA"/>
<rect y="60.3332" width="60.3333" height="60.3333" transform="rotate(-90 0 60.3332)" fill="#775AF1"/>
<rect x="60.333" y="60.3332" width="60.3333" height="60.3333" transform="rotate(-90 60.333 60.3332)" fill="#694EDA"/>
<rect x="120.667" y="60.3332" width="60.3333" height="60.3333" transform="rotate(-90 120.667 60.3332)" fill="#775AF1"/>
</svg>
