<svg width="390" height="671" viewBox="0 0 390 671" fill="none" xmlns="http://www.w3.org/2000/svg">
<path d="M399.779 12.5148C394.911 9.24809 388.104 5.63808 382.93 3.47375C379.491 2.05322 378.957 1.91698 376.749 2.0072L374.34 2.09649L376.511 2.87572C384.091 5.58622 392.6 9.83954 399.069 14.1504C401.537 15.7671 403.638 17.1146 403.738 17.1151C403.805 17.1154 403.874 16.6809 403.876 16.1792C403.88 15.3431 403.414 14.9061 399.779 12.5148Z" fill="url(#paint0_linear_487_244)"/>
<path d="M401.925 33.4975C392.178 22.014 381.207 14.7726 367.279 10.5948C363.772 9.57533 357.556 8.27585 345.559 6.14713C341.047 5.32372 333.53 3.48312 330.558 2.43264C328.588 1.72122 324.242 1.40026 324.874 2.00521C325.507 2.61015 332.653 5.05109 336.863 6.0738C339.269 6.65343 345.484 7.88601 350.731 8.88003C365.769 11.6247 372.416 13.6286 379.789 17.5422C387.83 21.8603 394.794 27.5782 400.382 34.4938C401.945 36.4409 403.342 38.1531 403.508 38.3545C403.641 38.5224 403.777 37.9878 403.781 37.1851C403.754 35.8471 403.555 35.4449 401.925 33.4975Z" fill="url(#paint1_linear_487_244)"/>
<path d="M401.32 55.9353C394.041 46.0686 384.848 37.5644 374.643 31.1627C365.371 25.4008 353.687 20.6312 343.161 18.4089C335.276 16.7339 329.692 16.24 316.916 16.0811C304.809 15.9586 299.628 15.3663 294.051 13.4677C287.906 11.3658 283.472 8.20147 279.749 3.26773C278.685 1.82464 278.252 1.48819 277.483 1.48466C276.513 1.48021 276.513 1.48021 276.977 2.41885C277.905 4.16233 281.2 7.82313 283.699 9.87484C288.764 13.9786 294.874 16.2475 303.699 17.3249C305.17 17.5323 311.423 17.7616 317.577 17.8902C332.827 18.2277 337.006 18.6817 345.826 20.8627C368.444 26.4517 388.582 40.3241 401.605 59.3816L403.665 62.3678L403.673 60.729C403.68 59.2239 403.481 58.8216 401.32 55.9353Z" fill="url(#paint2_linear_487_244)"/>
<path d="M401.432 183.736C396.288 189.466 387.698 195.48 377.608 200.484C354.209 212.016 326.994 217.076 299.946 214.811C287.14 213.749 276.982 211.629 263.758 207.22C258.247 205.389 257.846 205.32 254.335 205.27C251.258 205.223 250.421 205.319 249.114 205.915C244.556 208.002 242.562 212.407 244.316 216.396C244.68 217.234 246.043 219.146 247.374 220.591C248.672 222.068 250.134 224.115 250.665 225.121C251.46 226.73 251.558 227.333 251.512 229.975C251.467 232.449 251.158 234.154 249.695 239.666C247.074 249.487 247.192 253.133 250.319 256.726C252.016 258.641 254.185 259.788 257.193 260.303C261.771 261.094 266.495 259.443 273.172 254.791C281.795 248.81 288.199 245.361 296.14 242.454C306.257 238.755 315.497 236.991 327.104 236.643C353.23 235.826 378.005 245.071 398.658 263.394L402.722 266.991L402.727 265.854C402.733 264.583 401.868 263.643 396.903 259.539C381.409 246.692 364.353 238.954 344.835 235.888C335.877 234.475 322.733 234.549 313.36 236.111C298.499 238.585 286.469 243.514 273.685 252.318C266.438 257.336 263.455 258.626 259.107 258.606C254.826 258.587 252.057 257.035 250.466 253.817C249.77 252.409 249.607 251.606 249.616 249.566C249.629 246.823 249.903 245.453 251.808 238.338C253.373 232.525 253.69 229.048 252.934 226.302C252.242 223.891 251.445 222.616 248.75 219.56C246.255 216.739 245.426 215.197 245.434 213.391C245.441 211.752 246.016 210.55 247.527 209.186C249.072 207.721 250.446 207.126 252.588 206.868C255.098 206.578 257.838 207.126 263.883 209.127C273.567 212.349 280.383 213.952 290.009 215.401C320.525 219.99 352.489 215.052 379.275 201.629C387.89 197.287 394.332 192.935 399.808 187.743C402.932 184.78 403.1 184.513 403.106 183.242L403.112 181.871L401.432 183.736Z" fill="url(#paint3_linear_487_244)"/>
<path d="M399.764 211.958C393.566 214.137 386.402 215.642 375.693 217.032C369.401 217.805 367.459 218.298 365.379 219.627C362.897 221.154 361.85 223.39 362.442 225.667C363.296 228.882 366.499 230.736 373.45 232.039C380.367 233.308 390.888 236.601 398.232 239.711C400.569 240.726 402.572 241.538 402.672 241.538C402.772 241.538 402.841 241.104 402.844 240.602C402.848 239.733 402.614 239.598 397.974 237.704C389.16 234.151 382.413 232.08 373.291 230.199C366.675 228.797 364.107 227.247 364.118 224.671C364.125 223.133 364.699 222.165 366.242 221.169C368.12 219.974 370.163 219.448 375.183 218.835C386.561 217.449 395.132 215.616 401.564 213.204C402.737 212.774 402.972 212.541 402.976 211.772L402.98 210.835L399.764 211.958Z" fill="url(#paint4_linear_487_244)"/>
<path d="M400.288 295.175C396.411 287.264 391.626 280.519 385.434 274.169C372.351 260.764 355.832 252.694 337.545 250.771C334.169 250.421 325.406 250.481 321.725 250.866C313.058 251.729 303.212 254.56 295.234 258.403C289.468 261.22 285.879 263.511 278.293 269.33C266.78 278.174 261.685 280.692 255.43 280.664C247.704 280.628 241.571 276.118 237.296 267.369C234.049 260.665 233.203 255.61 233.262 242.767C233.332 227.516 232.56 220.856 230.016 213.988C224.003 197.772 208.241 184.957 189.495 181.058C183.882 179.862 179.669 179.541 172.511 179.709C160.97 179.991 152.768 181.759 138.863 187.047C127.103 191.542 123.018 192.526 116.596 192.53C112.315 192.511 111.68 192.441 109.242 191.56C104.1 189.764 100.267 186.736 97.1117 181.939C93.325 176.202 91.7143 170.074 91.7868 161.545C91.8858 147.264 96.2333 132.801 103.642 121.764C106.134 118.063 112.149 112.104 115.839 109.679C131.237 99.5821 147.851 101.464 163.576 115.116C169.139 119.924 174.594 126.572 185.228 141.571C194.766 154.96 205.884 166.55 218.017 175.703C240.582 192.731 268.562 203.328 296.981 205.633C304.102 206.2 317.75 205.928 323.908 205.087C336.726 203.34 348.652 199.314 356.737 193.966C367.606 186.791 376.72 175.963 383.91 161.681C394.508 140.658 398.423 118.501 395.138 98.1836C391.95 78.6361 381.729 60.9628 366.832 49.2885C355.168 40.1375 342.11 35.7964 321.848 34.3322C300.416 32.7622 296.772 32.3776 289.755 30.8403C278.528 28.4141 269.051 23.6547 262.859 17.3048C259.098 13.4412 256.311 8.34453 255.098 3.15472C254.737 1.58107 254.604 1.37978 253.868 1.3764C253.066 1.37272 253.032 1.43946 253.227 2.74478C253.519 4.65258 254.641 7.86861 256 10.584C260.838 20.473 271.207 27.745 286.172 31.7938C292.753 33.5633 300.742 34.6033 315.32 35.6067C329.898 36.61 338.221 37.8188 345.168 39.9244C371.287 47.9042 390.606 72.6765 393.947 102.56C394.493 107.546 394.55 117.112 394.025 122.126C391.333 147.467 378.705 173.497 362.117 187.703C358.725 190.631 356.343 192.259 352.353 194.481C343.601 199.291 334.391 202.058 321.908 203.573C316.118 204.316 299.228 204.338 293.478 203.61C283.55 202.393 275.263 200.75 267.313 198.406C235.281 188.927 207.776 169.67 188.698 143.393C187.236 141.38 184.278 137.252 182.151 134.266C172.58 120.91 165.324 113.251 157.586 108.332C155.319 106.917 149.145 103.879 147.608 103.437C141.262 101.601 136.046 101.109 131.193 101.823C114.425 104.288 100.752 117.37 94.1391 137.274C91.3918 145.589 90.0855 153.276 90.0478 161.504C90.026 166.253 90.1518 167.993 90.7409 170.805C92.0826 177.266 94.5684 182.228 98.662 186.662C103.921 192.338 109.863 194.673 118.193 194.31C124.114 194.07 128.099 193.018 140.53 188.325C153.429 183.501 161.732 181.666 172.503 181.381C191.001 180.898 206.027 186.418 217.58 198.044C224.305 204.764 228.418 212.375 230.415 221.75C230.971 224.428 231.094 226.77 231.274 238.577C231.407 246.137 231.641 253.463 231.835 254.868C233.613 268.389 240.555 278.756 249.773 281.641C252.646 282.557 257.83 282.581 260.944 281.726C265.834 280.343 270.965 277.357 278.115 271.704C283.116 267.78 287.68 264.523 290.698 262.764C298.881 257.985 308.496 254.618 318.671 252.959C323.859 252.146 337.271 252.208 342.083 253.1C352.811 255.055 361.759 258.541 370.496 264.134C384.236 272.96 395.511 286.691 401.129 301.567C401.756 303.242 402.352 304.65 402.419 304.717C402.485 304.784 402.557 303.748 402.563 302.343C402.574 299.935 402.509 299.7 400.288 295.175Z" fill="url(#paint5_linear_487_244)"/>
<path d="M400.001 393.875C395.627 406.933 390.326 417.645 383.323 427.747C375.445 439.083 364.996 449.169 353.591 456.509C343.594 462.951 334.644 467.392 320.504 472.946C317.22 474.236 308.177 476.97 303.02 478.184C291.134 481.073 281.395 482.199 269.455 482.144C249.822 482.021 233.152 477.83 219.009 469.437C200.863 458.685 189.598 442.779 183.783 419.741C180.203 405.51 178.756 392.927 177.352 363.421C176.161 338.698 175.034 329.194 172.166 320.084C170.254 314.021 167.666 309.561 164.235 306.367C158.407 301.023 150.457 298.779 143.358 300.485C137.264 301.996 131.226 305.815 120.38 315.163C103.288 329.835 96.6828 333.384 81.821 335.891C50.5576 341.166 26.4543 331.289 12.3821 307.477C10.3244 303.989 8.57451 299.031 7.6934 294.244C7.23697 291.667 7.11392 289.325 7.14736 282.034C7.19937 270.695 7.72192 266.149 11.5449 242.085C16.7795 209.231 16.9895 192.609 12.4707 178.775C7.09375 162.461 -5.99561 150.427 -22.2011 146.908C-26.8122 145.917 -35.2405 145.845 -39.5593 146.762C-42.2376 147.318 -42.4053 147.417 -42.5096 148.287C-42.6483 149.356 -42.715 149.323 -40.2706 148.698C-39.2327 148.469 -36.7558 148.079 -34.7481 147.887C-21.4639 146.61 -7.71011 152.326 1.63929 163.038C12.2529 175.228 15.6898 191.566 13.0966 217.342C12.3953 224.396 11.4614 231.114 9.6696 242.578C7.49869 256.482 7.18801 258.588 6.38792 265.307C4.5105 280.851 4.85939 292.291 7.42983 300.665C10.3298 310.11 19.5074 321.825 29.2098 328.492C44.247 338.796 64.202 341.563 87.3367 336.552C98.8537 334.062 105.46 330.213 121.343 316.673C130.04 309.254 133.697 306.595 138.156 304.375C145.028 300.928 150.581 300.719 156.856 303.591C164.333 307.003 168.587 312.876 171.347 323.558C173.648 332.432 174.61 341.534 175.673 364.918C177.531 404.728 180.891 423.139 189.508 440.471C210.85 483.514 270.293 496.463 329.877 471.083C341.741 466.02 354.585 458.62 363.044 451.936C378.049 440.098 390.603 422.931 398.351 403.567C401.531 395.722 402.143 393.517 402.124 390.44L402.137 387.53L400.001 393.875Z" fill="url(#paint6_linear_487_244)"/>
<path d="M401.683 428.03C401.515 428.197 399.833 430.196 397.916 432.495C393.914 437.293 385.849 445.417 380.981 449.509C360.13 467.14 334.821 479.466 306.898 485.592C293.004 488.639 280.99 490.089 264.063 490.747C244.225 491.526 242.987 491.654 241.141 493.184C238.857 495.113 240.451 497.763 246.086 501.468C249.854 503.994 251.322 504.803 260.632 509.629C271.009 515.028 272.142 515.836 281.465 525.076C287.558 531.091 290.39 533.479 293.859 535.502C297.229 537.424 300.167 538.374 303.477 538.656C308.626 539.048 312.178 537.76 316.008 534.031C319.199 530.902 322.094 527.036 329.906 515.465C340.11 500.361 345.829 493.096 354.061 484.972C362.293 476.782 370.213 471.066 379.9 466.361C385.666 463.544 392.802 460.968 398.326 459.756C399.799 459.428 401.205 459.134 401.44 459.068C402.009 458.903 401.95 457.264 401.348 457.261C401.08 457.26 398.871 457.752 396.426 458.376C373.422 464.19 354.829 477.852 337.16 501.886C335.241 504.486 330.662 511.054 326.992 516.455C315.61 533.16 312.821 535.99 306.931 536.799C302.915 537.349 298.538 536.259 294.269 533.664C291.301 531.844 288.635 529.558 281.942 523.072C272.452 513.864 271.986 513.494 262.643 508.635C254.501 504.383 251.866 502.966 248.797 501.113C244.361 498.417 241.53 495.828 241.936 494.827C242.308 493.858 245.521 493.338 253.015 493.038C272.116 492.289 279.176 491.82 288.078 490.69C309.396 487.978 328.586 482.481 346.117 474.099C367.067 464.061 384.99 450.53 398.744 434.405C401.736 430.874 401.972 430.507 401.979 429.135C401.982 428.299 401.851 427.83 401.683 428.03Z" fill="url(#paint7_linear_487_244)"/>
<path d="M401.187 470.641C400.284 470.637 392.716 472.71 389.231 473.931C381.694 476.572 373.345 480.982 366.868 485.769C362.002 489.359 354.005 497.383 350.034 502.683C343.842 510.949 338.344 520.925 333.237 533.31C331.951 536.481 330.497 539.987 330.024 541.088C327.183 547.865 322.983 551.993 316.786 554.072C313.939 555.029 305.946 554.892 302.071 553.837C289.477 550.401 276.038 541.71 262.253 528.168C255.094 521.145 253.329 519.531 249.764 516.638C243.666 511.66 237.327 508.053 231.116 506.017C225.872 504.254 223.032 503.806 217.68 503.782C200.087 503.768 182.479 514.357 161.335 537.605C153.132 546.665 147.994 551.19 140.379 556.139C126.356 565.239 108.708 569.974 93.8642 568.602C83.9013 567.687 76.1533 565.143 69.3512 560.563C59.0813 553.659 53.8809 542.598 55.3395 530.865C56.521 521.204 60.6049 513.162 67.5913 506.739C74.6452 500.182 85.2385 494.913 104.869 488.18C129.391 479.763 139.111 475.192 148.376 467.81C160.293 458.332 168.158 442.849 170.247 424.764C170.769 420.318 170.519 409.312 169.803 405.028C167.721 392.242 162.655 380.88 154.939 371.58C146.722 361.709 134.181 354.193 121.717 351.694C117.273 350.771 109.984 350.135 106.705 350.388C105.3 350.482 103.025 350.638 101.653 350.732C95.8652 351.107 87.4293 352.707 78.8898 355.01C72.1253 356.818 70.4841 357.312 53.4343 362.853C38.4949 367.701 32.9352 369.348 25.636 371.054C15.1558 373.514 7.6934 374.35 -0.967885 374.042C-7.55567 373.778 -12.0674 372.988 -17.8782 371.055C-25.9266 368.376 -36.1664 362.208 -42.0936 356.461L-43.5255 355.084L-43.5315 356.388C-43.5038 357.659 -43.3375 357.861 -40.8384 359.912C-23.3113 374.274 -5.33688 378.605 19.0993 374.235C27.5347 372.735 36.5099 370.234 56.0385 363.868C78.3472 356.646 85.9823 354.607 96.6258 352.984C101.412 352.27 112.417 352.053 116.595 352.607C129.565 354.239 140.844 359.842 150.1 369.15C154.694 373.753 156.656 376.304 159.709 381.469C169.733 398.439 171.667 421.459 164.788 440.994C162.45 447.505 158.505 454.578 154.503 459.342C146.095 469.304 134.358 476.04 111.578 483.996C108.998 484.887 104.04 486.637 100.523 487.859C82.1309 494.263 72.1729 499.569 64.9487 506.794C60.3789 511.388 57.4134 516.224 55.4119 522.37C51.1712 535.428 53.5569 547.613 62.1775 556.784C68.3686 563.334 76.7446 567.487 88.4405 569.781C92.1832 570.501 104.424 570.657 108.507 570.007C120.858 568.09 131.312 564.091 141.845 557.283C148.957 552.666 154.498 547.809 161.255 540.281C169.021 531.62 179.031 522.268 185.508 517.581C196.616 509.572 207.638 505.475 217.839 505.522C224.462 505.552 229.841 506.881 236.215 510.021C243.69 513.734 248.623 517.403 256.714 525.366C270.698 539.11 279.731 546.008 290.544 551.242C297.218 554.484 301.694 555.875 307.243 556.436C315.233 557.242 321.799 555.065 326.37 550.102C328.958 547.304 330.475 544.736 332.607 539.428C341.538 517.26 348.751 505.252 359.537 494.532C367.5 486.608 376.189 480.929 386.777 476.729C390.463 475.275 396.894 473.264 400.041 472.643C401.547 472.315 401.782 472.149 401.785 471.447C401.788 470.878 401.588 470.643 401.187 470.641Z" fill="url(#paint8_linear_487_244)"/>
<path d="M398.835 480.163C382.895 484.371 370.983 492.878 363.165 505.619C359.357 511.789 356.855 517.631 352.144 531.122C348.144 542.676 346.993 545.748 345.236 549.653C339.356 562.771 330.413 572.864 321.03 576.868C316.841 578.655 313.727 579.276 308.944 579.254C302.222 579.223 297.212 577.662 290.608 573.518C284.539 569.71 281.141 566.618 264.462 549.751C258.602 543.804 252.675 538.057 251.309 536.947C245.411 532.204 239.606 528.867 234.263 527.103C230.055 525.746 227.582 525.366 223.1 525.346C215.541 525.311 208.707 527.588 201.025 532.67C195.02 536.622 191.829 539.584 173.482 558.164C166.795 564.923 163.335 568.017 158.268 571.673C145.415 580.979 131.675 586.903 116.947 589.478C112.127 590.326 99.8838 590.604 95.3378 590.014C79.7613 587.903 65.5773 581.182 54.888 570.898C46.0635 562.429 40.2571 552.235 37.8663 541.153C37.0153 537.102 36.7196 528.638 37.2743 524.393C39.0386 511.625 44.2721 500.879 52.8062 492.456C59.5258 485.864 62.8451 484.107 77.9857 479.159C88.9391 475.597 99.5892 472.536 107.625 470.633C117.67 468.27 126.214 464.898 133.359 460.449C148.252 451.186 157.302 439.621 160.038 426.422C160.757 422.947 160.597 413.916 159.746 409.999C158.272 403.135 154.664 394.991 150.377 388.884C147.486 384.757 140.395 377.6 136.328 374.705C132.227 371.777 125.787 368.436 121.246 366.843C116.236 365.148 111.926 364.325 106.274 364.065C96.4766 363.585 86.9695 365.381 75.3428 369.91C71.3555 371.464 57.9473 377.891 52.1802 381.009C31.0897 392.451 20.2982 397.184 9.44971 399.743C-7.15761 403.614 -23.7367 401.33 -40.421 392.825C-42.0228 392.015 -43.4244 391.34 -43.5248 391.339C-43.6251 391.339 -43.694 391.774 -43.6963 392.275C-43.7004 393.178 -43.4338 393.38 -39.7962 395.136C-31.2861 399.256 -22.9694 401.769 -14.5792 402.844C-10.3341 403.399 1.23964 403.151 5.08915 402.466C14.73 400.671 22.7367 397.864 34.7373 392.033C41.1734 388.918 44.7943 387.029 54.3503 381.855C60.8889 378.272 70.8105 373.602 76.5066 371.387C90.8474 365.8 103.33 364.286 114.79 366.847C133.736 371.014 150.323 386.108 156.392 404.665C158.338 410.561 158.728 413.171 158.699 419.526C158.675 424.643 158.571 425.546 157.721 428.552C154.115 441.647 142.787 454.004 127.232 461.826C120.393 465.306 116.507 466.626 105.725 469.319C90.9914 472.964 68.684 479.919 63.5884 482.471C49.5756 489.464 39.6124 503.199 36.1553 520.408C34.8896 526.556 34.9157 535.453 36.1916 541.68C38.3835 552.36 44.156 562.654 52.6795 571.122C56.8747 575.289 59.6406 577.509 64.6429 580.709C79.9164 590.546 97.961 594.174 116.905 591.217C131.03 589.041 146.278 582.589 158.661 573.581C165.809 568.363 168.664 565.7 185.533 548.553C192.926 541.061 197.359 537.135 202.156 534.013C216.346 524.746 229.993 524.709 244.232 533.938C249.201 537.138 253.864 541.374 266.115 553.806C279.366 567.245 282.83 570.405 288.098 573.974C293.6 577.679 298.44 579.741 304.088 580.737C307.797 581.39 309.971 581.4 313.887 580.782C321.251 579.612 327.756 576.096 333.804 570.003C341.902 561.846 346.457 553.238 353.339 533.134C359.679 514.567 363.426 506.958 369.95 499.362C376.877 491.267 387.073 485.092 398.325 482.134C401.606 481.279 401.74 481.213 401.745 480.31L401.749 479.373L398.835 480.163Z" fill="url(#paint9_linear_487_244)"/>
<path d="M399.334 495.214C388.238 500.716 379.834 509.774 373.553 522.924C370.817 528.697 369.43 532.27 364.821 545.393C359.839 559.619 358.147 563.926 355.312 569.431C345.39 588.785 331.293 599.423 315.741 599.352C305.573 599.305 293.324 593.797 281.195 583.875C279.129 582.16 274.498 578.091 270.901 574.797C259.577 564.41 256.478 561.82 250.176 557.577C233.938 546.633 218.425 545.257 200.328 553.168C191.279 557.14 183.83 562.29 169.257 574.665C165.06 578.225 159.688 582.682 157.271 584.611C141.628 597.015 125.039 604.163 106.499 606.453C102.048 607.034 90.3087 606.981 86.0971 606.393C71.3232 604.318 58.8715 599.11 47.3735 590.127C43.5075 587.133 36.7162 580.178 33.8575 576.319C27.2756 567.492 23.1051 557.94 21.2792 547.664C20.5615 543.714 20.3409 533.478 20.8622 529.199C22.8433 512.92 30.5701 498.205 42.1864 488.66C45.3089 486.065 50.4077 482.811 54.9001 480.523C61.1356 477.375 65.7932 475.523 75.5071 472.39C96.5426 465.63 100.16 464.409 104.215 462.722C119.429 456.403 128.894 449.289 135.495 439.252C138.897 434.05 141.063 428.508 142.027 422.458C144.577 406.248 134.009 391.316 116.041 385.748C111.131 384.254 107.354 383.668 101.902 383.643C87.6208 383.578 74.2548 388.099 50.2473 401.1C26.2397 414.134 15.5867 417.831 -0.840045 418.793C-4.58707 419.01 -12.2775 418.506 -17.0566 417.681C-25.2111 416.273 -33.794 413.457 -41.1353 409.745L-43.7714 408.395L-43.7761 409.431C-43.7806 410.401 -43.614 410.536 -40.3432 412.056C-26.0257 418.844 -10.2853 421.693 4.23761 420.154C18.5599 418.614 29.3149 414.549 52.5849 401.913C63.9182 395.744 70.9236 392.465 78.3944 389.79C86.5689 386.851 92.6618 385.641 100.188 385.408C108.417 385.145 114.866 386.512 121.841 389.989C131.618 394.85 137.939 402.371 139.971 411.512C140.625 414.558 140.629 421.08 139.946 424.255C138.202 432.441 134.055 439.68 127.335 446.305C122.497 451.066 117.263 454.621 109.688 458.265C101.71 462.108 100.001 462.736 75.8504 470.452C63.6914 474.343 56.0173 477.585 49.0077 481.767C33.7812 490.862 24.0848 504.765 20.0194 523.342C19.1314 527.352 19.0612 528.087 19.0228 536.449C18.986 544.476 19.0474 545.68 19.7672 549.162C21.729 558.971 26.2975 569.26 32.0157 576.812C41.823 589.767 54.9238 599.326 69.8178 604.378C75.161 606.175 78.4685 606.993 85.0861 608.06C89.3306 608.749 103.613 608.714 108.399 608C119.611 606.346 128.319 603.676 138.476 598.706C148.835 593.67 153.533 590.28 173.41 573.48C184.658 563.999 192.107 558.916 200.084 555.207C212.854 549.312 224.666 548.329 236.02 552.228C245.17 555.347 253.438 561.137 268.226 574.751C281.482 586.953 288.348 592.102 296.691 596.12C303.166 599.227 308.11 600.588 314.262 600.917C331.383 601.865 346.82 590.564 357.353 569.273C360.425 563.033 361.271 560.863 366.185 546.838C372.184 529.64 375.126 522.797 379.27 516.194C384.56 507.722 391.413 501.265 399.626 497.055C401.403 496.127 401.672 495.86 401.676 495.024L401.68 494.054L399.334 495.214Z" fill="url(#paint10_linear_487_244)"/>
<path d="M401.086 521.812C399.413 521.804 393.111 524.919 389.889 527.346C385.056 531.003 380.548 536.769 376.936 543.943C374.54 548.648 372.95 552.588 369.459 562.572C366.002 572.356 364.378 576.463 362.15 580.834C355.636 593.681 346.335 601.666 332.735 606.085C315.987 611.527 297.071 608.263 280.466 597.016C276.098 594.052 272.466 591.092 264.038 583.662C257.443 577.812 255.544 576.198 252.311 573.741C244.978 568.189 237.369 564.408 229.952 562.635C226.01 561.68 218.049 561.744 213.764 562.694C205.694 564.564 198.486 568.31 186.574 576.784C178.051 582.833 176.064 585.733 177.786 589.554C179.077 592.403 182.749 594.025 186.665 593.408C187.769 593.246 190.649 592.49 193.027 591.765C207.195 587.381 216.366 585.952 227.636 586.338C240.678 586.766 250.261 590.255 261.928 598.837C267.762 603.111 271.692 606.675 281.013 616.417C297.091 633.114 302.453 638.189 311.018 644.884C323.682 654.742 341.233 663.987 357.93 669.582C361.237 670.701 361.905 670.838 364.614 670.75C366.889 670.694 367.358 670.595 366.589 670.391C347.483 665.019 327.626 655.295 312.861 644.023C306.062 638.841 301.499 634.639 287.383 620.293C279.06 611.859 271.503 604.299 270.57 603.459C260.078 594.012 249.001 587.941 238.208 585.684C231.191 584.214 225.573 583.92 217.81 584.687C209.244 585.518 202.414 586.958 192.366 590.089C187.543 591.572 184.23 592.025 182.426 591.415C181.024 590.94 179.559 589.495 179.197 588.156C178.506 585.577 180.322 583.479 187.906 578.028C202.704 567.46 211.853 563.656 222.255 563.703C229.044 563.768 234.522 565.265 241.796 569.144C248.002 572.451 252.568 575.917 263.295 585.398C274.154 595.047 279.754 599.253 286.126 602.627C296.003 607.857 305.724 610.343 316.36 610.392C337.331 610.454 355.007 599.632 364.056 581.144C366.351 576.438 367.705 573.033 371.399 562.548C374.956 552.563 376.276 549.225 378.672 544.52C383.634 534.743 390.522 527.784 398.196 524.742C399.402 524.246 400.642 523.783 400.977 523.685C401.68 523.487 401.788 521.815 401.086 521.812Z" fill="url(#paint11_linear_487_244)"/>
<path d="M400.01 551.942C394.244 554.825 388.597 560.987 384.648 568.795C382.859 572.366 381.742 575.104 378.456 584.253C374.255 595.873 371.824 600.946 368.022 605.912C363.311 612.145 356.567 616.696 348.126 619.4C342.298 621.246 339.219 621.667 331.526 621.632C323.499 621.595 318.686 620.937 315.014 619.349C312.277 618.132 311.039 618.26 309.326 619.824C306.37 622.62 307.888 627.009 313.849 632.688C317.912 636.553 321.546 639.112 327.485 642.216C342.7 650.18 358.465 654.901 375.85 656.653C380.898 657.178 393.907 657.405 398.357 657.057C400.867 656.835 400.934 656.802 400.938 655.965L400.942 655.096L397.195 655.346C392.042 655.724 378.598 655.328 373.517 654.669C361.016 653.04 351.261 650.52 340.11 646.054C334.201 643.685 326.259 639.769 322.791 637.512C317.755 634.211 312.426 629.27 310.735 626.252C308.412 622.128 310.6 619.094 314.504 621.085C318.341 623.076 332.217 624.143 340.049 623.042C347.78 621.974 353.944 619.728 360.05 615.776C368.47 610.295 373.891 602.293 379.143 587.601C384.699 572.107 386.929 567.267 390.865 562.235C393.59 558.769 396.916 555.741 399.833 554.082C401.141 553.352 401.41 553.019 401.414 552.216L401.418 551.246L400.01 551.942Z" fill="url(#paint12_linear_487_244)"/>
<path d="M400.568 583.218C399.023 584.616 396.023 589.686 391.804 598.062C389.373 602.9 386.574 608.072 385.63 609.539C383.138 613.307 379.81 616.971 376.218 619.797C372.257 622.957 370.144 624.218 364.648 626.668C357.877 629.68 355.761 631.678 355.981 634.856C356.23 638.804 359.266 640.524 368.257 641.869C372.702 642.559 380.93 642.596 385.615 642.016C389.598 641.499 395.022 640.286 398.505 639.132C400.582 638.439 400.851 638.239 400.955 637.437C401.024 636.936 400.959 636.534 400.825 636.533C400.691 636.533 398.983 637.027 397.04 637.653C389.671 639.994 382.309 640.997 374.918 640.662C363.014 640.139 356.87 637.77 357.724 634.028C357.997 632.725 359.912 630.894 362.024 629.867C362.996 629.436 365.644 628.144 367.957 627.084C372.951 624.699 376.978 621.942 380.673 618.313C385.78 613.319 387.397 610.852 393.54 598.705C395.903 594 398.601 589.029 399.544 587.628C400.858 585.694 401.263 584.793 401.267 583.857C401.273 582.586 401.273 582.586 400.568 583.218Z" fill="url(#paint13_linear_487_244)"/>
<path d="M399.918 608.768C395.815 613.7 390.374 618.558 384.637 622.345C383.228 623.308 381.684 624.572 381.213 625.172C379.497 627.405 379.618 630.181 381.484 631.628C383.917 633.512 388.37 632.563 396.784 628.387C400.673 626.432 400.908 626.266 401.013 625.229C401.082 624.661 401.051 624.159 400.917 624.158C400.817 624.158 400.18 624.49 399.476 624.921C398.805 625.353 396.726 626.414 394.883 627.275C387.441 630.853 383.725 631.639 382.362 629.893C380.865 627.946 381.875 626.546 387.714 622.459C390.834 620.266 393.621 617.904 396.712 614.874L401.147 610.48L401.155 608.874L401.162 607.269L399.918 608.768Z" fill="url(#paint14_linear_487_244)"/>
<path d="M389.574 326.933C386.855 299.963 375.34 280.176 356.057 269.285C340.278 260.416 321.32 259.058 307.241 265.816C299.498 269.56 294.224 274.419 283.259 287.948C272.562 301.211 268.027 305.505 261.625 308.452C257.938 310.175 255.259 310.764 251.179 310.746C243.721 310.712 237.047 307.336 231.191 300.687C226.133 294.877 222.787 287.939 220.919 279.502C219.74 274.011 219.199 268.155 218.654 255.744C217.776 235.505 216.571 228.442 212.464 219.693C208.092 210.409 202.701 204.464 195.526 200.953C191.387 198.96 188.648 198.346 183.965 198.324C176.105 198.288 169.807 200.634 154.817 209.127C146.299 213.938 142.177 215.759 135.881 217.469C132.767 218.325 132.098 218.355 126.011 218.327C120.158 218.3 119.088 218.195 115.814 217.411C108.63 215.672 101.554 212.495 95.8869 208.456C91.4865 205.292 84.9617 198.572 82.2382 194.413C74.8314 183.107 71.3765 170.682 71.4455 155.632C71.5326 136.634 77.3639 119.536 88.6682 105.106C101.487 88.7089 119.119 80.0602 136.27 81.7443C143.691 82.4807 148.869 83.9761 155.877 87.3529C167.391 92.9244 177.355 100.93 188.934 113.961C190.398 115.64 195.554 121.751 200.378 127.559C205.167 133.368 209.724 138.807 210.457 139.613C211.222 140.453 212.786 142.199 213.951 143.475C230.722 162.215 252.136 174.923 275.526 180.081C287.487 182.711 303.173 182.917 314.154 180.559C321.988 178.889 326.98 177.139 334.02 173.626C357.319 162.027 373.705 140.73 377.694 116.833C378.657 111.018 378.536 100.984 377.457 95.5937C372.256 70.05 351.917 49.0525 327.457 43.9568C323.882 43.2045 312.778 43.0533 309.263 43.7061C307.991 43.9678 304.208 44.6529 300.894 45.2731C297.58 45.9269 293.363 46.6434 291.522 46.869C282.452 48.1319 274.03 46.7888 265.72 42.7371C254.04 37.0979 245.421 27.4257 241.528 15.6681C240.605 12.8543 239.691 7.96693 239.701 5.82638C239.704 5.05712 239.61 3.71882 239.514 2.84877C239.319 1.47656 239.186 1.30872 238.45 1.30534L237.614 1.30151L237.832 4.8813C238.484 15.9552 242.654 25.5066 250.276 33.6022C254.237 37.7678 258.77 41.2336 263.442 43.6297C270.316 47.1397 275.594 48.5687 282.917 48.9033C288.301 49.1621 290.944 48.8732 299.882 47.2419C312 44.9896 311.967 44.9895 318.288 45.0185C323.137 45.0741 324.943 45.2162 327.649 45.7972C351.373 50.9899 370.579 71.1126 375.815 96.2551C376.437 99.3016 376.53 100.774 376.501 107.296C376.469 114.152 376.397 115.189 375.544 119.031C372.4 133.532 365.622 145.609 354.433 156.729C338.306 172.676 318.837 180.614 295.926 180.509C280.24 180.437 265.072 176.688 250.156 169.161C234.139 161.127 221.445 150.333 206.011 131.632C191.376 113.905 187.882 109.942 180.724 102.886C169.003 91.3598 155.092 83.436 141.893 80.7332C136.981 79.7407 128.386 79.6344 123.632 80.5491C98.0234 85.3818 76.3031 110.167 70.9789 140.679C68.3689 155.517 69.3756 169.402 73.9342 181.832C77.7002 192.05 83.2483 200.237 90.7781 206.593C96.7086 211.604 103.247 215.346 109.96 217.584C116.338 219.687 118.41 219.998 126.003 220.033C132.424 220.062 133.094 219.998 136.476 219.144C142.403 217.633 147.698 215.249 157.826 209.476C170.669 202.21 176.666 200.063 183.991 200.063C195.831 200.084 205.661 207.922 211.617 222.031C214.992 230.04 216.163 237.237 216.822 254.063C217.628 275.071 218.931 282.737 223.172 291.452C227.347 300.101 232.505 305.81 239.411 309.521C243.415 311.68 246.689 312.498 251.171 312.518C256.89 312.545 261.278 311.16 266.813 307.64C270.704 305.149 277.257 298.356 284.624 289.159C294.346 277.096 298.647 272.801 304.684 269.183C309.144 266.527 313.5 264.942 319.291 263.865C323.174 263.113 333.207 263.327 337.618 264.25C351.284 267.156 363.926 274.739 372.073 285.011C392.625 310.859 393.663 354.211 374.651 393.925C365.533 413.015 350.633 430.941 334.225 442.606C321.205 451.878 306.192 458.097 291.465 460.337C285.976 461.181 271.193 461.08 265.712 460.185C257.223 458.809 249.64 456.7 242.797 453.826C213.721 441.551 195.363 418.723 192.113 390.747C191.92 389.007 191.661 387.2 191.596 386.731C191.498 386.262 191.35 374.756 191.279 361.143C191.104 333.682 190.98 331.575 188.878 323.203C184.477 305.59 171.905 290.147 158.079 285.368C153.104 283.672 146.884 283.309 141.795 284.49C138.078 285.343 132.413 288.126 128.52 291.018C126.809 292.281 121.904 296.841 117.1 301.602C106.213 312.422 103.192 314.883 96.856 318.032C88.5088 322.174 80.8076 324.012 71.6768 323.97C59.7366 323.915 50.1546 320.159 43.098 312.735C37.3396 306.654 34.1923 300.084 32.4643 290.344C32.0074 287.866 31.9184 285.391 31.9479 278.969C31.9914 269.471 32.3739 266.295 35.5697 247.713C38.7993 229.031 39.6077 220.506 39.296 208.263C39.0477 196.756 37.9171 188.022 35.3886 177.809C31.7434 163.109 24.9186 148.896 16.2389 138.02C10.5854 130.937 2.95851 123.878 -4.47725 118.894C-14.3803 112.226 -26.7669 107.386 -37.1962 106.067C-38.8676 105.859 -40.706 105.616 -41.2742 105.513C-42.3102 105.341 -42.3774 105.408 -42.3816 106.311L-42.386 107.281L-39.6779 107.527C-29.4808 108.41 -17.5264 112.679 -7.5213 118.98C3.01742 125.617 13.9043 136.571 20.8112 147.473C32.8654 166.425 38.9659 192.709 37.4405 219.025C36.8612 228.655 36.3751 232.532 33.7286 248.039C30.5324 266.721 30.3231 268.593 30.2756 278.962C30.209 286.186 30.299 288.427 30.8216 291.172C32.4841 300.612 36.2285 308.255 41.9211 314.101C47.5471 319.879 54.7214 323.524 63.4772 325.103C67.454 325.824 75.2465 325.96 79.1959 325.376C89.6384 323.818 99.5243 319.649 107.011 313.63C107.95 312.898 113.09 308.005 118.432 302.779C127.94 293.491 130.559 291.329 135.052 288.908C143.233 284.53 152.432 284.372 161.042 288.492C163.512 289.674 168.013 292.771 170.444 294.923C178.206 301.882 185.173 314.122 187.597 325.204C189.268 332.804 189.424 335.38 189.571 361.637C189.684 388.027 189.81 389.733 191.61 398.404C193.966 409.753 199.433 420.916 207.084 430.115C224.913 451.57 255.157 464.418 284.029 462.744C298.85 461.876 311.511 457.987 326.466 449.728C338.235 443.193 351.769 431.214 361.224 418.949C376.635 398.918 386.174 375.482 389.301 350.01C389.926 345.03 390.087 331.852 389.574 326.933Z" fill="url(#paint15_linear_487_244)"/>
<path d="M375.641 331.217C374.367 317.131 369.921 302.159 364.738 294.443C359.224 286.223 351.29 280.534 341.47 277.68C338.931 276.966 337.961 276.861 332.443 276.836C326.991 276.811 325.954 276.906 323.576 277.564C315.505 279.868 308.325 284.819 301.666 292.749C300.22 294.481 296.249 299.714 292.849 304.448C285.982 314.016 283.089 317.581 279.192 321.276C273.28 326.902 267.681 329.819 260.484 331.057C246.76 333.402 230.069 326.369 220.159 314.049C210.148 301.627 204.971 285.583 203.241 261.694C202.173 246.604 200.895 240.779 197.379 234.441C195.023 230.216 190.895 226.083 187.091 224.092C185.056 223.046 180.946 222.124 178.371 222.113C173.354 222.123 169.903 223.244 159.077 228.379C148.853 233.215 146.441 234.141 140.616 235.285C134.958 236.429 129.17 236.771 123.821 236.278C99.8498 234.094 80.0754 221.127 67.0319 199.092C57.6725 183.262 53.2429 164.579 53.349 141.434C53.4225 125.414 55.8196 113.25 61.5654 100.199C70.9619 78.769 89.8983 62.9687 112.365 57.7871C120.802 55.8525 131.674 55.4675 140.13 56.8776C152.897 58.9764 165.213 64.4513 175.01 72.4231C182.575 78.5451 188.299 84.8259 201.301 101.141C216.366 120.074 226.919 130.858 239.752 140.483C264.218 158.824 292.35 165.207 315.597 157.621C322.062 155.51 328.902 151.896 334.473 147.674C343.133 141.058 349.867 131.222 352.387 121.433C356.337 106.2 352.199 89.5578 341.912 79.1756C332.157 69.3644 317.859 65.4859 294.844 66.4506C284.707 66.8724 271.429 66.8115 267.485 66.2917C255.25 64.7974 244.168 60.0305 234.705 52.2275C231.44 49.5033 226.314 43.9946 223.722 40.337C220.93 36.4109 217.219 28.9353 215.735 24.2459C213.856 18.3507 213.173 14.1667 213.037 7.27608C212.897 1.22159 212.864 1.18799 212.128 1.18462C211.158 1.18017 210.955 1.71438 210.943 4.45696C210.913 10.9455 212.278 19.5141 214.192 25.3092C220.394 43.9005 235.777 59.1224 254.479 65.2286C264.164 68.3501 270.116 68.8122 295.437 68.3263C309.051 68.0543 313.097 68.307 319.68 69.7085C321.785 70.153 324.491 70.8678 325.693 71.2746C341.021 76.5626 350.296 88.8132 351.956 106.012C352.947 116.018 350.022 126.674 343.929 135.308C342.851 136.842 340.162 139.873 337.944 142.071C322.825 157.019 300.826 162.37 277.472 156.811C262.905 153.332 247.557 145.201 234.263 133.902C230.232 130.506 229.133 129.464 222.441 122.643C215.916 116.025 210.925 110.316 203.576 101.151C201.713 98.8347 199.119 95.6119 197.789 93.9335C190.839 85.2389 183.483 77.3117 177.919 72.5702C163.86 60.5653 147.265 54.4019 128.77 54.317C113.685 54.2478 100.423 58.1672 87.9093 66.3711C67.6466 79.6569 55.6098 100.64 52.1029 128.719C51.4429 134.067 51.4713 149.754 52.1771 156.313C53.7796 171.538 56.6076 182.087 62.2405 193.652C66.8459 203.172 71.8639 210.252 78.8222 217.241C86.6466 225.003 95.9515 230.832 106.204 234.324C118.493 238.528 129.928 239.283 142.784 236.666C146.332 235.946 151.827 233.797 158.9 230.385C166.778 226.575 169.626 225.384 172.539 224.628C186.704 221.014 197.862 231.233 200.417 250.175C200.612 251.48 201.058 256.366 201.404 261.05C202.794 278.95 205.184 290.032 209.985 300.69C217.401 317.247 229.827 328.207 245.562 332.126C249.237 333.046 256.594 333.414 260.175 332.895C266.032 332.019 271.897 329.471 276.864 325.68C282 321.724 285.968 317.16 294.35 305.425C303.169 293.09 307.808 287.994 313.679 284.074C319.651 280.155 324.274 278.638 331.098 278.435C339.093 278.171 345.439 280.006 352.642 284.721C355.876 286.843 361.336 292.387 363.528 295.876C370.336 306.509 375.022 327.502 374.113 343.418C372.911 364.785 366.544 382.182 353.859 398.513C348.745 405.112 339.441 413.765 331.959 418.882C320.618 426.623 306.98 432.146 294.261 434.161C287.868 435.169 285.693 435.326 278.736 435.294C264.087 435.227 252.126 432.496 240.113 426.454C218.689 415.686 203.528 395.984 199.084 373.219C197.319 364.114 197.558 355.72 200.091 335.764C200.715 331.051 200.897 327.907 200.927 321.218C201.003 312.054 200.777 310.18 199 303.917C195.215 290.622 183.864 278.73 170.706 274.288C165.53 272.558 162.355 272.042 156.034 272.013C148.542 271.979 144.692 272.73 138.157 275.409C131.455 278.188 125.919 281.942 113.094 292.553C100.235 303.163 93.7286 307.114 84.6186 309.848C81.9056 310.672 81.0691 310.735 76.42 310.747C71.9715 310.76 70.8683 310.655 68.597 309.975C61.3822 307.868 56.2833 303.831 53.6667 298.234C51.2158 292.972 48.097 280.181 47.0019 271.011C45.7461 260.403 45.6835 244.883 46.765 227.864C47.3774 218.301 47.5043 190.641 46.9575 185.889C45.8636 176.452 44.2927 168.919 41.918 161.617C29.8141 124.335 -0.460069 96.2351 -38.1137 87.3328C-39.7841 86.9238 -41.3879 86.5485 -41.6884 86.4468C-42.156 86.3108 -42.2906 86.4775 -42.2943 87.2802C-42.2978 88.0494 -42.1318 88.3178 -41.697 88.3197C-41.3625 88.3213 -39.0572 88.867 -36.585 89.4804C-24.4585 92.68 -13.6438 97.479 -3.57346 104.148C22.8693 121.695 40.864 150.776 44.7001 182.2C46.0539 193.31 46.1338 205.05 45.0312 226.685C43.6749 252.567 44.0801 266.315 46.4953 279.37C48.0627 287.672 51.0279 297.486 52.9861 300.773C59.3923 311.472 74.5249 315.555 88.6632 310.368C96.0338 307.693 102.81 303.342 113.621 294.395C124.432 285.414 130.74 280.928 136.305 278.177C153.435 269.693 173.788 273.165 187.004 286.805C191.265 291.206 195.282 297.913 197.161 303.775C198.843 309.034 199.327 312.849 199.256 321.043C199.225 327.799 199.047 330.04 197.901 339.266C195.783 356.314 195.738 366.046 197.769 375.354C203.14 400.263 221.772 421.687 246.179 431.098C256.996 435.261 266.587 437.044 278.527 437.099C294.314 437.172 306.937 434.219 321.486 427.028C342.236 416.788 359.478 398.605 368.304 377.608C374.323 363.354 377.009 346.342 375.641 331.217Z" fill="url(#paint16_linear_487_244)"/>
<path d="M361.596 329.48C359.899 313.184 351.318 302.575 337.883 300.239C335.109 299.758 334.139 299.72 331.83 300.044C321.823 301.403 314.473 306.955 299.945 324.147C288.175 338.14 283.773 342.502 278.34 345.754C268.58 351.596 255.805 351.337 242.656 345.022C237.716 342.625 232.681 339.391 228.683 335.994C219.887 328.495 218.753 327.821 214.572 327.802C212.097 327.791 211.729 327.889 210.387 328.786C205.824 331.976 204.655 338.794 206.848 349.34C210.71 367.82 221.468 384.994 236.399 396.468C246.731 404.409 257.547 409.041 271.282 411.411C275.727 412.168 290.109 412.334 294.025 411.683C302.56 410.25 306.88 409.1 312.778 406.785C317.737 404.835 320.486 403.476 324.846 400.787C344.468 388.602 358.245 367.36 361.226 344.696C361.78 340.518 361.949 332.927 361.596 329.48ZM359.736 341.378C358.477 360.538 347.277 381.357 331.332 394.06C308.538 412.285 275.945 415.747 249.749 402.717C227.458 391.611 211.405 369.462 207.839 344.796C206.412 335.056 209.484 328.782 215.334 329.411C217.908 329.69 220.143 331.072 225.64 335.713C235.602 344.154 244.411 348.81 254.402 350.862C258.479 351.717 265.134 351.848 268.883 351.129C279.328 349.171 285.202 344.515 301.11 325.523C307.533 317.86 315.06 310.135 318.752 307.443C321.672 305.282 326.465 302.929 329.312 302.207C330.919 301.813 332.424 301.719 335.334 301.833C338.577 301.981 339.613 302.187 342.051 303.101C351.033 306.454 356.885 313.872 359.043 324.618C359.73 328 360.237 334.089 360.058 336.831C359.986 337.767 359.843 339.807 359.736 341.378Z" fill="url(#paint17_linear_487_244)"/>
<path d="M347.532 340.654C346.923 334.798 344.338 329.635 339.875 325.367C334.514 320.292 328.898 319.53 321.692 322.909C316.061 325.559 309.007 332.082 297.172 345.574C285.269 359.165 280.702 363.158 275.075 364.871C263.185 368.496 248.721 364.45 234.222 353.446C232.522 352.167 230.422 350.786 229.554 350.414C225.181 348.454 220.919 351.579 220.962 356.73C221.011 360.811 223.169 364.299 229.827 371.052C240.98 382.408 255.161 389.731 271.536 392.616C294.195 396.633 317.27 390.083 332.958 375.171C341.692 366.883 346.349 357.94 347.501 347.276C347.677 345.437 347.818 343.732 347.82 343.498C347.787 343.297 347.659 342.026 347.532 340.654ZM345.347 350.143C343.736 358.831 339.487 366.404 332.263 373.395C318.825 386.445 299.629 393.213 279.935 391.818C263.284 390.672 247.76 384.413 235.266 373.92C230.235 369.649 225.044 363.672 223.488 360.287C221.666 356.432 223.191 352.058 226.505 351.538C228.011 351.31 229.513 352.053 233.579 355.149C241.779 361.341 250.088 365.359 258.442 367.17C261.783 367.888 269.676 368.024 272.321 367.401C276.372 366.483 278.718 365.557 281.133 363.963C284.555 361.737 291.544 354.746 299.748 345.418C311.953 331.46 317.964 326.17 324.364 323.59C326.274 322.83 327.212 322.667 329.553 322.677C332.061 322.655 332.663 322.792 334.565 323.704C339.671 326.169 344.026 332.009 345.335 338.169C345.957 341.148 345.965 346.767 345.347 350.143Z" fill="url(#paint18_linear_487_244)"/>
<path d="M336.003 345.819C334.913 342.737 332.349 340.25 329.111 339.064C327.875 338.59 326.738 338.485 324.531 338.575C321.854 338.663 321.285 338.794 318.738 340.053C315.654 341.544 311.055 345.169 307.123 349.165C301.545 354.858 285.71 372.713 285.135 373.982C284.358 375.717 284.752 377.224 286.187 377.967C289.023 379.451 300.838 377.632 308.546 374.49C316.119 371.415 322.459 367.229 329.312 360.772C335.459 355.014 337.554 350.308 336.003 345.819ZM333.764 352.631C332.921 354.267 329.96 357.999 328.483 359.263C327.945 359.729 326.468 360.993 325.192 362.124C315.051 370.908 302.718 376.136 290.842 376.717C287.831 376.87 287.263 376.801 286.863 376.364C285.866 375.122 285.429 375.655 300.96 358.468C313.331 344.778 318.702 340.588 324.356 340.246C327.735 340.061 329.738 340.806 332.135 343.225C333.167 344.234 334.164 345.61 334.396 346.246C334.923 347.921 334.642 350.896 333.764 352.631Z" fill="url(#paint19_linear_487_244)"/>
<path d="M333.511 109.54C332.464 97.2938 320.108 85.698 303.971 81.8445C298.759 80.6165 291.505 79.7471 282.343 79.2702C268.9 78.5731 262.148 77.7729 256.035 76.1394C235.824 70.7621 218.393 57.3704 208.507 39.6317C202.569 29.0353 199.442 17.8832 198.733 4.90265C198.516 1.18907 198.482 1.12203 197.713 1.1185C196.944 1.11497 196.91 1.21516 196.901 3.25536C196.871 9.67699 198.467 18.9825 200.875 26.4187C209.448 53.1485 232.167 73.2538 260.036 78.8C264.581 79.7239 273.005 80.5653 280.83 80.9356C300.325 81.8278 309.613 84.0779 318.583 90.1394C331.72 98.9961 335.438 112.325 328.158 124.466C323.44 132.338 314.719 137.716 303.404 139.805C298.216 140.751 287.178 140.767 281.229 139.837C263.949 137.149 248.53 130.021 235.771 118.791C229.342 113.143 223.984 107.131 212.545 92.6633C196.517 72.3879 188.292 64.323 175.086 55.8673C144.739 36.4963 105.291 32.168 74.8301 44.8383C62.5652 49.9329 52.6275 58.1152 46.1586 68.3871C42.4525 74.2567 40.8566 79.4671 39.1297 91.3662C38.059 98.753 37.5134 101.025 36.2658 103.227C34.7822 105.829 32.5022 107.056 29.1576 107.04C25.3448 107.023 20.5396 104.593 13.2737 99.0407C2.64182 90.8309 -12.8443 83.6023 -30.8815 78.3688C-33.9546 77.4851 -41.5049 75.6109 -42.0401 75.6084C-42.1404 75.608 -42.2424 75.9754 -42.2446 76.4436C-42.2475 77.0791 -42.0144 77.3143 -41.3128 77.4848C-26.9798 80.8952 -13.3222 85.7073 -2.71076 91.0739C2.49485 93.7067 5.06313 95.257 9.83011 98.7239C12.1304 100.373 15.064 102.494 16.3306 103.436C19.3644 105.591 23.7354 107.885 25.8739 108.33C30.084 109.252 34.0679 108.434 36.2858 106.17C38.7391 103.606 39.418 101.435 40.9708 91.0402C42.7996 78.8071 44.1903 74.5657 48.7033 67.7967C57.1905 54.9921 71.9827 45.7952 90.4302 41.7993C123.442 34.6259 159.388 43.8214 186.31 66.3207C192.907 71.8362 199.396 78.9902 210.47 92.8879C224.903 111.049 231.027 117.632 239.659 124.261C251.158 133.11 265.445 139.129 280.552 141.54C283.393 141.988 286.436 142.135 292.255 142.196C301.085 142.236 304.164 141.849 310.193 139.937C316.591 137.892 321.018 135.237 325.252 130.975C331.233 124.915 334.145 117.303 333.511 109.54Z" fill="url(#paint20_linear_487_244)"/>
<path d="M327.9 493.749C327.135 492.675 324.899 491.695 323.126 491.687C321.788 491.681 314.592 492.919 294.975 496.575C291.025 497.326 287.109 498.044 286.272 498.174C285.435 498.337 282.456 498.858 279.61 499.381L274.489 500.294L274.649 501.933C274.743 503.171 275.041 503.808 275.907 504.749C277.471 506.395 279.107 507.071 283.218 507.725C285.256 508.069 287.361 508.647 288.295 509.12C289.73 509.862 292.896 512.319 294.894 514.234C296.426 515.746 299.695 517.701 301.532 518.245C307.076 519.876 313.111 516.86 320.942 508.567C326.017 503.172 328.41 499.237 328.424 496.226C328.428 495.19 328.232 494.219 327.9 493.749ZM326.071 498.624C324.922 501.194 322.634 504.127 318.904 507.956C314.603 512.351 311.985 514.413 308.968 515.77C304.779 517.658 301.103 516.972 297.004 513.575C291.707 509.102 290.574 508.261 289.072 507.518C288.171 507.046 286.368 506.469 285.064 506.229C280.051 505.336 279.383 505.166 278.316 504.492C277.115 503.717 276.418 502.711 276.655 502.043C276.756 501.809 277.493 501.511 278.297 501.415C279.066 501.318 282.983 500.634 286.933 499.882C290.883 499.165 298.113 497.827 303.001 496.912C324.793 492.898 324.09 492.962 325.89 494.409C326.956 495.25 327.017 496.621 326.071 498.624Z" fill="url(#paint21_linear_487_244)"/>
<path d="M306.392 654.129C297.47 645.158 288.513 636.32 286.482 634.472C265.032 614.84 244.015 602.87 223.933 598.798C217.65 597.532 216.246 597.391 208.721 597.39C200.493 597.353 197.046 597.772 189.88 599.645C175.146 603.457 159.885 612.652 146.547 625.702C139.357 632.76 134.985 638.024 127.377 648.826C124.515 652.86 121.081 657.728 119.668 659.661C117.21 663.095 113.572 668.864 113.569 669.4C113.568 669.533 113.969 669.669 114.504 669.671C115.274 669.675 115.576 669.375 116.487 667.741C118.746 663.704 134.601 641.568 138.838 636.504C142.067 632.672 150.299 624.382 153.758 621.488C169.135 608.581 183.784 601.591 199.848 599.457C204.333 598.842 214.5 598.989 219.246 599.713C241.473 603.059 264.591 616.109 288.636 638.829C290.367 640.476 298.191 648.339 306.015 656.235C319.931 670.379 320.264 670.649 321.435 670.554L322.64 670.459L306.392 654.129Z" fill="url(#paint22_linear_487_244)"/>
<path d="M316.516 110.133C315.493 107.118 313.13 104.633 309.492 102.81C304.921 100.481 301.178 99.7614 290.845 99.2123C286.732 98.9928 282.252 98.6712 280.848 98.4975C264.569 96.3492 249.545 90.6278 236.241 81.5027C230.173 77.3275 225.693 76.9724 223.269 80.4398C222.595 81.4401 222.459 82.0415 222.45 83.9814C222.436 86.9581 223.529 89.4047 226.62 93.5663C229.313 97.1909 236.87 104.885 240.569 107.745C243.869 110.302 250.405 114.479 253.742 116.167C269.225 124.031 288.311 126.828 304.213 123.522C310.942 122.149 315.034 119.559 316.456 115.852C317.269 113.615 317.308 112.411 316.516 110.133ZM314.247 116.277C311.617 120.747 303.245 123.05 289.934 122.989C283.378 122.959 280.002 122.642 274.588 121.547C256.343 117.951 239.4 107.371 228.13 92.5698C224.805 88.2399 223.516 84.9228 224.263 82.518C224.806 80.7144 226.014 79.8503 227.987 79.8594C230.128 79.8692 231.263 80.4096 237.099 84.1489C243.368 88.1913 248.84 91.0593 254.85 93.4616C267.069 98.3674 276.392 100.216 293.947 101.2C303.51 101.745 308.687 103.341 312.283 106.936C315.546 110.162 316.168 113.075 314.247 116.277Z" fill="url(#paint23_linear_487_244)"/>
<path d="M288.459 662.741C274.178 648.16 264.95 640.124 253.88 632.614C236.241 620.693 217.237 614.753 198.438 615.302C175.958 616.002 159.155 626.092 146.15 646.803C143.152 651.505 139.171 658.946 136.502 664.62C135.286 667.223 134.306 669.459 134.306 669.56C134.305 669.66 134.773 669.762 135.308 669.765C135.877 669.767 136.312 669.602 136.313 669.435C136.316 668.9 142.494 656.419 144.449 653.017C146.911 648.68 151.39 642.011 153.643 639.245C157.78 634.214 164.296 628.257 168.455 625.7C184.79 615.674 205.4 614.197 227.508 621.422C246.277 627.562 263.046 639.446 286.351 663.099C293.209 670.054 293.742 670.525 294.779 670.429C295.85 670.334 295.783 670.233 288.459 662.741Z" fill="url(#paint24_linear_487_244)"/>
<path d="M295.519 224.857C294.587 223.816 293.317 223.576 285.694 222.939C278.874 222.373 279.041 222.441 272.034 218.763C267.229 216.232 263.348 216.382 260.994 219.147C259.817 220.58 259.841 222.787 261.087 228.178C262.235 233.1 262.294 234.739 261.378 237.611C260.122 241.586 260.61 244.698 262.743 246.381C265.109 248.198 267.857 247.106 270.416 243.339C272.84 239.738 274.891 237.473 277.374 235.678C280.663 233.251 282.808 232.358 286.858 231.808C288.765 231.516 291.075 231.125 291.945 230.928C295.428 230.075 297.282 226.939 295.519 224.857ZM294.236 227.427C293.83 228.462 292.254 229.191 289.343 229.645C288.071 229.84 286.029 230.165 284.824 230.327C279.469 231.206 273.696 235.427 269.454 241.662C266.928 245.363 265.385 246.292 263.819 244.981C262.186 243.669 261.962 241.594 263.048 238.154C263.964 235.248 263.909 232.706 262.762 227.65C261.712 223.03 261.586 221.491 262.126 220.457C262.699 219.456 264.374 218.794 266.414 218.804C268.053 218.811 268.788 219.049 272.558 221.006C278.364 224.043 279.467 224.282 290.634 225.136C292.54 225.312 293.743 225.552 294.042 225.887C294.642 226.459 294.609 226.392 294.236 227.427Z" fill="url(#paint25_linear_487_244)"/>
<path d="M267.004 665.987C249.316 650.219 236.01 641.83 222.849 638.057C203.308 632.482 187.461 638.229 172.93 656.123C169.432 660.455 165.023 666.522 163.27 669.491C163.101 669.758 163.335 669.893 164.138 669.896C165.141 669.868 165.376 669.668 166.724 667.534C172.081 659.029 181.796 648.304 187.6 644.518C196.758 638.573 205.095 636.671 215.222 638.189C230.096 640.398 245.742 649.333 265.095 666.647C268.559 669.74 269.459 670.346 270.362 670.384C270.931 670.386 271.433 670.288 271.4 670.154C271.401 669.987 269.402 668.138 267.004 665.987Z" fill="url(#paint26_linear_487_244)"/>
<path d="M255.082 669.579C254.881 669.545 253.816 668.57 252.65 667.427C245.125 660.101 235.586 654.305 227.468 652.127C223.192 651.004 219.882 650.654 214.53 650.83C205.9 651.092 198.932 653.401 191.886 658.285C188.229 660.777 183.625 665.505 181.301 669.074L180.728 669.974L181.832 669.979C182.802 669.983 183.137 669.751 184.114 668.317C186.976 664.116 192.65 659.426 198.148 656.709C207.4 652.135 218.475 651.183 227.927 654.136C235.909 656.648 244.414 661.971 251.806 669.096C252.772 670.003 253.373 670.307 254.242 670.311C255.279 670.316 255.817 669.85 255.082 669.579Z" fill="url(#paint27_linear_487_244)"/>
<path d="M233.979 668.814C229.041 666.049 224.531 664.991 218.075 665.196C213.023 665.373 210.009 666.195 205.885 668.484L203.37 669.911L205.008 670.019C206.279 670.092 207.016 669.928 208.189 669.331C211.14 667.739 214.12 667.05 218.602 666.904C222.282 666.787 223.151 666.858 225.991 667.607C227.761 668.083 230.065 668.863 231.066 669.369C232.468 670.011 233.37 670.216 234.541 670.154L236.147 670.061L233.979 668.814Z" fill="url(#paint28_linear_487_244)"/>
<path d="M218.079 482.074C216.819 479.627 214.35 478.378 208.436 477.147C201.886 475.779 198.383 474.024 194.754 470.361C191.191 466.8 189.634 463.581 188.127 456.618C187.505 453.705 185.913 450.788 183.982 448.939C180.419 445.511 176.47 445.861 172.973 449.926C171.292 451.824 170.009 454.394 168.011 459.803C166.182 464.845 165.035 466.981 162.477 470.414C158.17 476.147 152.161 480.902 144.35 484.78C137.746 488.061 131.448 490.206 115.876 494.416C105.729 497.179 100.571 498.827 95.4439 500.944C76.9463 508.586 66.2221 520.51 65.1203 534.653C64.8692 538.365 65.6204 542.315 67.2103 545.7C68.9993 549.421 72.7286 553.084 76.9665 555.21C81.4046 557.472 85.6811 558.495 91.3658 558.755C104.441 559.35 118.241 554.898 129.82 546.355C135.189 542.4 140.264 537.005 146.154 529.005C151.539 521.738 154.365 518.239 157.355 515.209C166.797 505.686 177.387 501.153 201.323 496.48C210.797 494.617 213.444 493.692 216.198 491.23C218.549 489.1 219.472 484.723 218.079 482.074ZM216.448 487.686C214.894 491.124 211.676 492.614 202.001 494.51C181.112 498.561 171.43 501.995 162.269 508.542C157.47 511.965 153.269 516.528 146 526.161C139.27 535.027 137.118 537.592 133.423 541.02C125.294 548.575 114.265 554.01 102.582 556.298C99.5688 556.886 97.7956 557.012 93.1802 556.957C88.1633 556.934 87.0936 556.795 84.1873 556.013C74.8671 553.528 69.1379 548.385 67.3329 540.851C66.3813 536.833 67.1454 530.682 69.2086 525.675C71.5762 519.933 77.5271 513.204 84.0689 508.919C86.8533 507.093 94.4644 503.013 95.0665 503.016C95.1668 503.017 96.0715 502.653 97.0436 502.189C99.993 500.865 107.328 498.591 117.777 495.762C132.511 491.783 140.384 489.043 146.184 485.959C153.661 481.946 160.947 475.892 164.583 470.658C167.143 466.89 167.919 465.355 169.85 460.079C171.848 454.67 172.793 452.868 174.54 450.97C176.423 448.905 178.367 448.077 180.037 448.52C183.11 449.37 185.535 453.06 186.78 458.786C189.203 469.934 195.997 476.454 207.659 478.816C213.44 479.979 215.409 480.958 216.702 483.339C217.266 484.345 217.157 486.184 216.448 487.686Z" fill="url(#paint29_linear_487_244)"/>
<path d="M184.138 473.323C182.811 470.742 180.71 469.461 177.901 469.448C174.088 469.464 171.202 471.558 165.988 478.056C157.376 488.82 149.36 493.566 127.051 500.989C107.12 507.621 100.147 511.034 92.6239 517.822C87.4517 522.481 83.7839 527.314 81.8899 531.887C79.9615 536.662 80.7754 541.515 84.138 544.909C88.3663 549.142 94.7178 549.874 103.293 547.037C113.141 543.804 118.043 539.88 139.113 518.27C153.361 503.652 160.109 498.231 171.206 492.562C177.877 489.148 179.018 488.417 181.369 486.154C184.024 483.557 184.767 481.922 184.951 478.177C185.064 475.401 185.033 475.033 184.138 473.323ZM183.002 480.342C181.982 483.949 179.127 486.445 171.819 490.191C159.615 496.423 153.674 501.011 140.402 514.396C117.35 537.636 115.134 539.632 107.96 543.145C97.9369 548.082 89.5079 548.178 85.2484 543.442C83.2187 541.158 82.6245 539.45 82.8058 536.374C83.0935 531.993 85.8245 527.223 91.2348 521.696C96.7793 516.069 101.309 512.979 109.252 509.436C113.81 507.417 116.624 506.393 128.382 502.433C142.518 497.715 149.322 494.67 155.73 490.284C160.159 487.261 163.317 484.298 166.883 479.833C170.247 475.634 173.304 472.671 175.214 471.777C177.494 470.717 180.267 471.198 181.798 472.911C183.196 474.456 183.715 477.836 183.002 480.342Z" fill="url(#paint30_linear_487_244)"/>
<path d="M213.828 60.761C213.204 58.3834 212.109 56.405 209.649 53.1494C197.249 36.7706 192.632 29.6252 188.594 20.4758C185.979 14.5437 183.511 5.63556 183.527 2.19062C183.532 1.1538 183.432 1.053 182.562 1.04901C181.592 1.04456 181.558 1.1113 181.72 2.28268C182.723 9.77934 184.468 15.8077 187.68 22.7794C191.29 30.6894 196.138 38.1702 207.308 53.0049C210.999 57.905 212.06 59.8833 212.249 62.3926C212.439 64.6679 211.898 65.9364 210.086 67.2994C208.978 68.1305 208.61 68.2291 206.168 68.2179C202.255 68.2 201.088 67.4253 193.962 60.4692C190.766 57.344 186.87 53.6135 185.304 52.2016C166.418 35.2244 144.864 23.7871 123.745 19.5428C111.849 17.147 99.5754 16.8231 88.4632 18.5449C66.3725 21.9889 47.3546 33.6749 35.2668 51.2124C31.3945 56.8806 28.7607 62.3203 26.2173 69.9345C23.7752 77.315 23.1333 78.7169 21.1838 80.8151C18.0242 84.2121 13.8401 84.9288 8.69861 82.8984C5.99424 81.8491 4.02615 80.7029 -3.61075 75.8181C-13.5487 69.4511 -25.7674 64.4784 -37.6628 61.9488C-41.9397 61.0261 -42.1738 61.025 -42.1784 62.0284C-42.1818 62.7642 -41.9816 62.8655 -39.0743 63.414C-35.2646 64.1338 -27.0477 66.5128 -22.6069 68.172C-15.8957 70.7113 -8.9888 74.3218 -1.7861 79.0708C5.7167 84.0219 9.58908 85.6451 14.0708 85.6657C17.4153 85.7144 19.828 84.7221 22.1801 82.3582C24.4313 80.1276 25.3429 78.2587 27.8524 70.7447C29.0396 67.1379 30.867 62.4972 31.8798 60.4616C37.754 48.5815 47.3669 38.2906 59.5758 30.8211C76.2455 20.6294 97.3672 16.9803 119.225 20.5255C138.61 23.6581 157.835 32.4758 175.431 46.2697C181.697 51.1817 184.828 53.9721 194.018 63.0114C196.415 65.3302 199.147 67.7175 200.081 68.3238C203.383 70.3123 207.562 70.6325 210.613 69.0745C213.529 67.6162 214.782 64.3107 213.828 60.761Z" fill="url(#paint31_linear_487_244)"/>
<path d="M194.934 256.471C193.361 249.44 189.176 242.899 184.406 240.101C182.238 238.82 178.162 237.832 174.951 237.817C169.934 237.794 165.146 238.943 154.895 242.608C145.548 245.977 140.089 247.49 132.692 248.727C126.867 249.704 114.091 249.712 109.145 248.787C97.783 246.594 88.8404 241.971 81.6164 234.579C77.9877 230.883 76.5917 228.971 73.7724 223.807C71.7824 220.152 68.8528 217.162 66.7147 216.617C62.6389 215.595 59.2818 218.289 57.6842 223.867C56.8343 226.873 55.4141 237.536 54.9128 244.725C54.233 254.388 55.0011 261.95 57.4086 269.387C61.4985 281.914 71.891 291.26 83.5229 292.919C89.4391 293.749 95.4342 291.97 101.709 287.517C104.528 285.523 105.166 284.958 111.817 278.7C117.763 273.142 122.327 269.852 127.623 267.234C141.77 260.275 157.494 259.276 172.121 264.327C173.423 264.801 176.127 265.917 178.129 266.863C184.27 269.734 185.975 270.01 189.759 268.923C191.501 268.396 193.818 266.3 194.529 264.597C195.307 262.694 195.491 258.949 194.934 256.471ZM192.691 264.187C191.643 266.591 189.163 267.783 185.752 267.567C183.846 267.458 182.811 267.119 179.473 265.531C174.601 263.235 172.464 262.422 168.422 261.367C154.825 257.759 139.801 259.296 127.029 265.525C120.727 268.64 117.471 271.033 109.376 278.622C103.632 284.014 102.423 285.012 99.102 287.171C91.3864 292.152 83.6913 292.652 75.7493 288.669C65.4378 283.538 58.7628 273.105 56.886 259.35C56.336 255.301 56.4834 245.033 57.1468 238.949C58.5772 226.078 59.4977 222.27 61.6827 219.872C64.9436 216.274 68.5474 218.097 72.5947 225.34C75.1822 230.001 77.642 233.324 80.9717 236.583C88.5299 244.043 99.8106 249.346 111.543 250.871C115.287 251.39 124.819 251.434 128.868 250.984C136.699 250.117 146.677 247.587 155.657 244.25C169.46 239.096 176.387 238.292 182.562 241.163C186.934 243.223 190.325 247.62 192.37 254.052C193.821 258.44 193.908 261.45 192.691 264.187Z" fill="url(#paint32_linear_487_244)"/>
<path d="M104.333 261.91C103.27 260.333 101.067 259.353 97.2232 258.7C93.0456 258.012 90.4404 257.197 87.3372 255.611C83.8668 253.856 82.5334 252.88 78.7704 249.283C74.7076 245.418 73.8738 244.913 71.4647 245.103C68.0853 245.388 66.0647 248.389 66.4129 252.705C66.9815 259.999 71.2919 268.213 76.6579 272.319C80.5242 275.28 84.4647 276.636 89.1473 276.624C92.2912 276.638 94.1003 275.977 97.9583 273.453C103.729 269.633 106.326 264.896 104.333 261.91ZM102.674 266.317C101.357 268.886 97.5634 272.047 93.5747 273.901C91.7646 274.763 91.0617 274.893 88.7539 274.883C81.1951 274.848 74.2282 269.732 70.5536 261.454C69.4939 259.141 67.981 253.549 67.9877 252.077C67.995 250.505 68.7061 248.602 69.6804 247.636C71.5955 245.772 73.9993 246.72 78.0271 250.919C82.7871 255.891 89.0267 259.164 95.6108 260.231C99.9558 260.886 101.592 261.462 102.523 262.604C103.555 263.846 103.585 264.515 102.674 266.317Z" fill="url(#paint33_linear_487_244)"/>
<path d="M176.776 15.5383C176.018 13.1936 173.329 8.73285 169.871 4.16824C167.777 1.416 167.311 0.979058 166.475 0.975223C165.906 0.972615 165.471 1.07096 165.47 1.1713C165.47 1.27163 166.5 2.71457 167.797 4.32596C174.281 12.6505 176.466 17.5103 175.445 21.3185C174.935 23.2226 173.893 24.3885 171.915 25.2825C168.798 26.7398 165.489 26.2899 159.514 23.6871C145.594 17.6363 134.708 13.8068 122.782 10.8088C99.2622 4.88124 79.9332 4.19054 62.5202 8.69288C50.9004 11.7167 40.3709 17.6553 32.3066 25.7459C26.8631 31.2062 23.1605 36.34 18.6064 44.7811C15.4019 50.6865 14.6609 51.8203 12.2425 54.0501C8.54748 57.5116 2.88774 59.0911 -3.22966 58.3607C-8.74549 57.7334 -11.9175 56.5482 -22.2287 51.3501C-29.9036 47.4685 -33.5423 45.9467 -38.5861 44.4854C-40.4232 43.9418 -41.9597 43.5 -41.9931 43.4998C-42.06 43.4995 -42.0955 43.9341 -42.0978 44.4358C-42.1019 45.3389 -41.9686 45.4398 -40.1643 45.8495C-36.2551 46.737 -31.3476 48.7329 -23.7394 52.5807C-12.2935 58.3191 -9.35519 59.4029 -3.20434 60.1335C2.9465 60.8641 9.24217 59.1872 13.1376 55.7935C15.2532 53.9302 17.273 51.0965 19.6348 46.6254C22.4018 41.3201 24.5919 37.8182 27.3513 34.1518C38.1538 19.7523 53.2773 11.2259 72.9569 8.40628C77.9438 7.69332 90.8888 7.45167 96.5723 7.97944C115.295 9.7042 134.302 14.8418 155.165 23.7675C163.377 27.2836 164.78 27.7248 168.091 27.74C170.232 27.7498 171.102 27.5866 172.543 26.9243C176.901 24.8705 178.424 20.8305 176.776 15.5383Z" fill="url(#paint34_linear_487_244)"/>
<path d="M173.55 149.346C171.673 142.949 165.818 136.166 157.082 130.273C153.547 127.882 147.541 124.744 144.703 123.794C140.194 122.302 134.009 121.805 130.059 122.59C118.877 124.846 110.435 135.076 107.221 150.313C104.862 161.473 109.303 170.491 118.024 172.337C121.599 173.089 125.783 172.439 133.654 169.933C138.511 168.384 139.85 168.189 149.318 167.63C160.793 166.947 164.71 166.163 168.568 163.705C170.849 162.244 171.891 161.078 172.972 158.708C174.188 156.105 174.406 152.327 173.55 149.346ZM171.946 156.295C170.857 160.404 168.372 162.667 163.281 164.149C159.999 165.138 157.422 165.46 148.59 165.955C139.356 166.481 138.185 166.676 131.251 168.819C123.179 171.29 119.332 171.507 115.427 169.649C112.156 168.096 109.3 163.734 108.552 159.149C107.315 151.718 111.554 138.927 117.607 131.965C123.693 124.868 132.601 122.367 142.323 124.92C148.336 126.52 157.709 132.115 163.237 137.392C167.066 141.055 169.161 143.774 170.718 147.025C172.44 150.712 172.797 153.155 171.946 156.295Z" fill="url(#paint35_linear_487_244)"/>
<path d="M158.236 148.707C156.611 145.622 144.967 139.214 139.353 138.285C136.779 137.872 133.265 138.391 130.148 139.648C122.81 142.691 118.924 151.302 123.085 155.502C124.65 157.081 126.421 157.458 130.102 157.04C136.895 156.268 144.793 155.401 149.21 154.92C155.233 154.278 156.707 153.917 157.849 152.852C158.89 151.854 159.065 150.216 158.236 148.707ZM156.348 151.909C155.878 152.208 153.234 152.664 149.887 153.083C132.854 155.045 126.965 155.654 126.43 155.451C124.059 154.671 123.229 153.463 123.241 150.854C123.329 146.239 127.999 141.511 133.657 140.333C138.244 139.384 141.184 140.033 147.925 143.408C152.296 145.602 155.23 147.623 156.36 149.233C157.291 150.542 157.287 151.311 156.348 151.909Z" fill="url(#paint36_linear_487_244)"/>
<path d="M168.246 335.785C167.213 327.519 164.509 319.178 161.353 314.514C159.858 312.334 156.893 309.778 155.156 309.168C149.68 307.27 141.27 310.476 131.736 318.058C126.432 322.281 120.011 329.51 118.423 333.048C116.97 336.319 117.393 338.863 119.757 341.048C121.723 342.829 123.66 343.273 129.848 343.301C137.373 343.336 138.642 343.81 146.943 349.802C154.177 355.052 157.148 356.27 160.697 355.517C166.656 354.207 169.601 346.594 168.246 335.785ZM166.427 345.844C165.607 349.519 163.923 352.221 161.71 353.381C160.235 354.144 157.225 353.963 154.989 352.982C153.988 352.51 150.82 350.455 148.02 348.402C142.786 344.598 138.482 342.271 135.808 341.79C134.973 341.653 131.896 341.505 128.953 341.491C124.104 341.435 123.469 341.366 122.201 340.691C120.299 339.645 119.336 338.169 119.377 336.397C119.386 334.591 120.364 332.722 123.123 329.223C130.962 319.225 144.448 310.256 151.606 310.289C154.951 310.304 158.185 312.56 160.541 316.584C165.121 324.332 167.999 338.593 166.427 345.844Z" fill="url(#paint37_linear_487_244)"/>
<path d="M158.895 332.833C158.21 329.15 154.687 324.151 151.618 322.464C149.95 321.554 144.431 321.528 142.086 322.454C134.48 325.396 129.534 331.795 132.497 334.752C133.329 335.625 143.744 340.122 147.785 341.378C153.263 343.109 157.921 341.123 158.878 336.679C159.287 334.841 159.288 334.808 158.895 332.833ZM156.665 337.806C155.115 340.374 151.433 340.96 147.026 339.3C141.783 337.336 134.073 333.99 133.807 333.554C132.512 331.508 135.741 327.509 140.736 325.023C143.954 323.399 147.67 322.848 149.84 323.694C153.746 325.15 157.234 330.45 157.247 334.832C157.241 336.136 157.036 337.139 156.665 337.806Z" fill="url(#paint38_linear_487_244)"/>
<path d="M153.863 1.35227C153.797 1.11784 153.33 0.91502 152.862 0.912873C152.093 0.909344 152.025 1.00938 152.189 1.84629C152.417 3.05142 151.473 4.71943 150.099 5.4155C148.02 6.47627 146.048 6.06586 135.864 2.37346C131.957 0.950781 131.289 0.813929 129.014 0.870389L126.506 0.959222L135.522 4.14457C146.341 7.94022 148.213 8.24982 151.029 6.75764C153.275 5.53042 154.558 3.06124 153.863 1.35227Z" fill="url(#paint39_linear_487_244)"/>
<path d="M129.432 616.358C127.576 612.47 124.503 611.687 117.973 613.429C103.774 617.244 95.9081 618.512 86.5433 618.47C79.9544 618.439 76.5782 618.022 71.3336 616.594C58.9402 613.259 43.5993 603.523 31.8142 591.528C18.6641 578.156 10.5396 562.9 7.57382 545.929C6.88971 541.946 6.63518 531.811 7.15712 527.398C9.10925 510.148 16.9434 493.896 28.8695 482.445C36.3277 475.255 45.0115 470.645 64.1747 463.743C88.1624 455.056 94.5318 451.875 101.218 445.216C105.721 440.688 107.847 436.617 108.71 430.768C109.608 424.518 107.228 418.386 102.495 414.752C98.1955 411.488 93.8207 410.03 87.3333 409.766C76.3984 409.281 67.3206 412.283 48.1416 422.63C29.8009 432.513 23.0333 434.991 9.21092 436.934C4.02326 437.68 -7.5825 437.626 -12.7965 436.833C-23.6927 435.211 -32.4102 432.562 -40.9196 428.309C-42.2211 427.668 -43.3892 427.127 -43.5564 427.126C-43.7237 427.125 -43.8593 427.526 -43.8618 428.061C-43.8653 428.831 -43.5989 429.099 -41.7632 429.944C-31.6173 434.707 -23.4006 437.152 -12.4707 438.708C-8.29254 439.295 5.1862 439.357 9.10199 438.807C22.9241 436.93 32.0371 433.56 49.3058 424.04C55.2743 420.756 64.9281 416.152 68.7474 414.764C81.2774 410.206 92.3477 410.324 99.818 415.074C104.654 418.173 107.008 422.532 106.982 428.318C106.945 436.312 102.06 443.915 93.5071 449.228C87.57 452.946 80.4988 455.991 64.8536 461.572C40.1295 470.389 30.5035 476.231 21.3522 487.963C13.6476 497.827 8.4101 509.443 6.21418 521.507C3.16094 538.183 5.62982 554.115 13.6854 569.805C19.9177 581.941 29.632 593.324 41.9629 602.98C51.1612 610.18 62.4724 616.118 71.325 618.467C80.3447 620.849 91.7495 620.968 102.931 618.779C104.772 618.419 107.048 617.962 107.952 617.798C108.89 617.602 112.272 616.781 115.486 615.927C122.753 613.987 124.961 613.863 126.493 615.342C127.892 616.686 128.651 618.83 128.441 620.869C128.056 624.58 125.869 627.48 115.991 637.234C103.525 649.619 99.3217 654.55 95.8137 660.989C94.0261 664.226 92.1673 668.431 92.1638 669.201C92.1628 669.401 92.6303 669.571 93.1654 669.573C93.734 669.576 94.1696 669.41 94.1705 669.21C94.1742 668.407 96.337 663.567 97.82 661.099C101.427 654.928 104.521 651.363 116.55 639.244C128.815 626.925 129.824 625.525 130.08 620.743C130.225 618.436 130.127 617.833 129.432 616.358Z" fill="url(#paint40_linear_487_244)"/>
<path d="M97.2436 633.769C95.5829 631.219 91.8066 630.533 85.9479 631.744C77.3104 633.543 68.9855 632.803 61.0737 629.522C53.9296 626.58 50.9633 624.292 42.7753 615.591C40.5786 613.24 38.6432 612.261 36.7354 612.554C33.221 613.106 31.3627 617.178 32.5464 621.632C32.7437 622.369 34.9614 627.429 37.4785 632.859C39.9621 638.289 43.1083 645.093 44.4331 647.942C45.7244 650.791 47.4133 654.478 48.1749 656.154C54.1691 669.158 54.2023 669.225 55.1383 669.33C55.6397 669.399 56.0415 669.301 56.0422 669.134C56.043 668.966 55.315 667.257 54.4207 665.347C52.9304 662.129 50.0493 655.861 47.3338 649.929C46.7047 648.554 43.6578 641.951 40.5448 635.214C34.6833 622.444 33.8563 620.434 33.864 618.761C33.871 617.223 35.0845 615.188 36.3583 614.559C38.2018 613.697 39.9027 614.776 43.7289 619.175C48.8858 625.118 55.6209 629.731 62.7673 632.172C69.7802 634.546 78.0058 635.052 85.7722 633.582C88.1156 633.125 90.5254 632.768 91.0605 632.77C92.7997 632.778 94.6693 633.523 95.5341 634.564C97.0642 636.41 96.1171 638.714 91.036 645.413C89.2188 647.813 85.4135 653.448 82.5502 657.883C79.6867 662.352 76.8234 666.787 76.2169 667.754L75.0718 669.488L76.1755 669.493C77.2458 669.498 77.4141 669.265 83.5115 659.761C86.9476 654.425 91.0895 648.323 92.7382 646.19C97.6842 639.791 98.9376 636.318 97.2436 633.769Z" fill="url(#paint41_linear_487_244)"/>
<path d="M80.7664 645.635C80.502 644.931 79.8711 643.925 79.3719 643.387C77.8741 641.809 76.7378 641.603 72.1201 642.05C64.9927 642.753 61.6509 642.136 55.912 639.099C53.0758 637.614 52.1743 637.276 50.803 637.269C49.4317 637.263 48.9962 637.428 48.324 638.128C46.5091 640.059 46.9669 642.336 50.6786 649.811C55.7489 660.069 59.4778 663.799 64.762 663.89C67.5044 663.936 69.4475 663.243 72.9701 660.918C79.0085 656.999 82.4511 650.225 80.7664 645.635ZM78.1923 652.647C76.8421 655.316 74.5899 657.781 71.8727 659.541C68.9205 661.468 67.1784 662.095 64.9041 662.085C60.1547 662.063 56.8267 658.435 51.5591 647.441C49.3064 642.714 48.6817 640.37 49.5223 639.404C50.195 638.571 52.1998 639.015 54.7681 640.565C56.0022 641.307 58.1381 642.32 59.507 642.862C62.011 643.843 62.0444 643.843 69.7036 643.878C73.9512 643.898 77.5962 644.048 77.8296 644.217C78.63 644.722 79.1903 646.531 79.214 648.638C79.2067 650.243 79.0022 651.078 78.1923 652.647Z" fill="url(#paint42_linear_487_244)"/>
<path d="M80.4038 432.945C78.9503 428.992 74.2821 425.86 69.1669 425.402C64.4863 424.979 59.561 426.863 51.2748 432.276C44.6326 436.594 41.8496 438.086 34.5098 441.364C32.5658 442.258 29.785 443.282 26.3016 444.37C4.16091 451.426 -18.8791 450.384 -40.411 441.388L-43.9495 439.9L-43.8539 440.938C-43.758 441.908 -43.558 442.043 -40.5868 443.26C-33.2758 446.271 -25.6597 448.413 -17.8056 449.686C-12.0903 450.582 -0.118334 451.005 5.26908 450.461C23.138 448.637 36.6724 443.849 52.2041 433.853C58.6451 429.668 61.5949 428.243 65.2776 427.457C67.4874 426.966 68.2232 426.969 69.8607 427.278C76.1094 428.544 79.9693 432.876 78.9118 437.387C78.0591 440.995 75.0339 444.259 68.5925 448.544C62.6543 452.497 55.9514 455.443 41.1108 460.626C21.9151 467.328 13.2641 472.071 5.50077 480.163C1.36697 484.492 -2.67493 490.661 -5.14319 496.47C-8.42258 504.114 -9.85876 510.964 -9.8968 519.258C-9.96645 527.151 -9.18261 531.269 -5.7817 540.884C-3.76803 546.679 -3.65174 550.493 -5.50569 553.628C-7.05632 556.263 -10.0723 557.521 -12.8784 556.772C-16.319 555.82 -18.1532 554.641 -25.2169 548.755C-30.4814 544.383 -42.5482 535.464 -43.9171 534.923C-44.2175 534.787 -44.3525 535.054 -44.3554 535.69C-44.3592 536.526 -43.893 536.963 -40.7592 539.185C-35.825 542.652 -29.5923 547.43 -24.8611 551.399C-20.03 555.468 -17.8626 556.916 -15.0912 557.932C-9.98254 559.829 -5.59329 558.143 -3.33062 553.404C-2.554 551.802 -2.45075 551.167 -2.47069 548.224C-2.45643 545.113 -2.58776 544.578 -4.0735 540.356C-6.12015 534.46 -7.46766 529.27 -7.88436 525.321C-8.33496 521.473 -8.03088 513.514 -7.31072 509.638C-4.49973 494.733 3.88799 481.761 15.8646 473.889C21.9033 469.903 27.5001 467.454 43.1119 461.873C53.933 457.976 58.021 456.356 62.4794 454.169C70.8268 449.993 77.6749 444.539 79.7676 440.401C80.8478 438.232 81.1306 434.922 80.4038 432.945Z" fill="url(#paint43_linear_487_244)"/>
<path d="M39.9659 666.485C39.4031 665.211 37.1254 658.645 34.8819 651.912C29.6033 636.034 25.2361 625.612 19.0012 614.045C3.64652 585.444 -13.3619 567.372 -39.2805 552.235C-41.8157 550.752 -44.0176 549.538 -44.1514 549.537C-44.3186 549.537 -44.4208 549.937 -44.4232 550.473C-44.4268 551.242 -44.1271 551.544 -42.3255 552.522C-34.7524 556.738 -25.2168 563.304 -17.7533 569.526C-0.1605 584.156 15.8852 607.943 27.494 636.493C28.5855 639.174 31.0618 646.175 33.0416 652.071C34.9879 657.967 37.1331 664.264 37.8272 666.074C38.9838 669.123 39.1167 669.324 40.0197 669.328C40.5548 669.331 40.9901 669.232 40.9573 669.098C40.958 668.931 40.495 667.792 39.9659 666.485Z" fill="url(#paint44_linear_487_244)"/>
<path d="M38.1577 346.527C36.6742 341.804 32.8433 338.442 24.9658 334.961C14.685 330.432 9.44963 326.996 3.09044 320.646C-5.83244 311.741 -11.7051 301.413 -14.7934 289.258C-16.3706 283.096 -16.8842 278.411 -16.8147 270.552C-16.7684 260.451 -15.8681 253.766 -11.6921 232.948C-8.16651 215.371 -7.0582 207.081 -7.01616 197.917C-6.968 187.415 -8.64322 180.751 -12.7638 174.913C-16.1865 170.047 -22.0566 166.441 -28.6396 165.14C-31.4134 164.626 -37.7006 164.463 -40.8129 164.85C-42.3189 165.044 -42.4868 165.177 -42.5909 166.013C-42.6954 166.915 -42.6954 166.915 -41.2562 166.688C-40.4527 166.524 -37.5424 166.437 -34.8 166.483C-30.3518 166.537 -29.4493 166.642 -26.7773 167.457C-22.3018 168.849 -19.4997 170.467 -16.5698 173.39C-11.5423 178.397 -9.23051 184.829 -8.77469 194.832C-8.381 203.797 -9.62939 213.458 -13.873 234.443C-17.2959 251.485 -18.2976 258.404 -18.6085 267.868C-18.8422 275.058 -18.4979 280.21 -17.42 285.834C-13.6295 305.317 -1.96666 322.094 14.6111 331.97C16.4791 333.049 19.0153 334.298 22.7872 335.954C28.5953 338.49 31.3638 340.141 33.6609 342.493C38.0883 347.062 37.8912 353.583 33.1521 358.612C29.8247 362.142 25.5031 363.661 17.7751 364.06C6.13298 364.642 -6.66319 361.607 -18.2748 355.533C-26.3496 351.315 -32.2827 346.873 -39.0075 340.019L-43.4354 335.55L-43.4415 336.888C-43.4475 338.193 -43.2481 338.461 -39.6855 341.989C-33.3264 348.373 -27.3262 352.782 -19.4186 356.966C-7.44027 363.309 4.2198 366.105 16.8977 365.762C22.852 365.588 24.8603 365.263 28.2778 363.974C35.9504 361.066 40.3004 353.36 38.1577 346.527Z" fill="url(#paint45_linear_487_244)"/>
<path d="M36.2024 0.377724C35.3662 0.373889 34.4959 0.53713 34.261 0.703287C34.0259 0.902889 32.5156 2.03315 30.9047 3.22984C27.3475 5.82237 21.6703 11.2147 18.7779 14.6799C17.601 16.0458 14.8414 19.7457 12.5863 22.8459C6.0562 31.88 2.83111 34.9758 -2.12779 36.893C-4.13808 37.653 -4.90795 37.7833 -8.11862 37.7351C-12.2994 37.7159 -15.3061 36.9663 -22.3169 34.1246C-30.563 30.809 -38.1099 28.1656 -40.9167 27.5841C-41.9192 27.3788 -42.0198 27.4453 -42.0231 28.1476C-42.0264 28.8834 -41.5593 29.1197 -35.7482 31.0194C-32.3085 32.1723 -27.0328 34.103 -23.9947 35.321C-16.8169 38.1969 -13.176 39.2505 -9.46474 39.5351C-5.71986 39.7864 -3.14237 39.3299 -0.0920358 37.8723C4.3325 35.7854 7.79247 32.5235 12.5725 25.8561C19.0691 16.8218 22.3987 12.8235 26.496 9.16314C29.8206 6.23508 33.6474 3.20898 35.962 1.74794C36.9012 1.1502 37.7065 0.585303 37.7068 0.518411C37.7071 0.451519 37.0385 0.381559 36.2024 0.377724Z" fill="url(#paint46_linear_487_244)"/>
<path d="M18.9141 662.206C17.3251 658.62 14.3122 651.917 12.2597 647.292C-3.59802 611.699 -16.7842 591.604 -34.34 576.205C-37.2048 573.683 -43.8709 568.602 -44.3057 568.6C-44.406 568.6 -44.5083 569.034 -44.5106 569.536C-44.5143 570.338 -44.0815 570.775 -41.7481 572.492C-30.2471 580.806 -17.5373 595.38 -7.97776 611.311C-0.542306 623.653 9.33149 644.001 19.2578 667.492C19.9198 669.001 20.1194 669.236 20.9555 669.239C21.4907 669.242 21.9259 669.144 21.8931 669.01C21.8604 668.842 20.5365 665.793 18.9141 662.206Z" fill="url(#paint47_linear_487_244)"/>
<path d="M7.94766 340.735C7.75005 340.065 6.71951 338.689 5.58772 337.514C3.85635 335.8 2.72256 335.059 -2.01604 332.696C-10.1583 328.611 -15.8576 324.237 -20.5803 318.396C-31.0898 305.404 -34.4317 290.204 -31.2603 269.648C-30.295 263.365 -29.6104 259.956 -26.5047 246.425C-22.3065 228.048 -21.3395 221.397 -21.5639 211.997C-21.6748 207.013 -21.8347 205.407 -22.5248 202.728C-24.3979 195.462 -28.2197 190.093 -33.4251 187.427C-35.6275 186.313 -39.3021 185.326 -41.4761 185.316C-42.6467 185.311 -42.7474 185.377 -42.7514 186.247C-42.7554 187.116 -42.6886 187.15 -40.8161 187.259C-35.4994 187.551 -30.5627 190.483 -27.6075 195.179C-22.9918 202.458 -22.0687 212.664 -24.5475 228.072C-25.3731 233.051 -26.5701 238.799 -29.471 251.428C-33.0883 267.132 -34.1238 274.117 -34.1653 283.181C-34.2163 294.285 -32.281 302.589 -27.7373 310.971C-24.0226 317.811 -18.1335 324.561 -11.9664 329.038C-10.2329 330.283 -6.3634 332.542 -3.36001 334.028C4.58188 338.044 6.38045 339.691 6.3645 343.17C6.34686 347.016 1.35006 349.903 -3.26028 348.745C-6.36707 347.928 -9.63635 346.073 -15.5363 341.698C-25.103 334.597 -34.9246 324.752 -41.5053 315.658L-43.1671 313.342L-43.2737 314.713C-43.415 316.351 -43.2157 316.653 -38.7589 322.125C-29.0805 334.01 -12.1202 348.002 -4.7385 350.176C-2.66761 350.788 0.275181 350.901 1.98323 350.407C2.61947 350.243 3.92708 349.547 4.90009 348.882C7.78549 346.922 8.90317 343.884 7.94766 340.735Z" fill="url(#paint48_linear_487_244)"/>
<path d="M3.99388 0.229998C3.22462 0.22647 2.92222 0.526103 1.97791 2.22755C-2.0353 9.43364 -6.37223 14.297 -10.5625 16.3514C-15.7247 18.8363 -20.4737 18.7476 -29.7591 15.9624C-37.2742 13.687 -40.6815 12.7683 -41.3503 12.7318C-41.7517 12.7299 -41.9536 12.9966 -41.9559 13.4983C-41.9589 14.1672 -41.4582 14.3702 -36.3478 15.8987C-23.5885 19.6698 -23.8557 19.6017 -18.7387 19.6586C-14.6918 19.7106 -13.7883 19.6144 -12.0795 18.9533C-7.95861 17.4337 -4.16525 14.4074 -0.799942 9.90756C0.579628 8.10776 4.9273 0.903213 4.92929 0.468415C4.9299 0.334631 4.52901 0.232453 3.99388 0.229998Z" fill="url(#paint49_linear_487_244)"/>
<defs>
<linearGradient id="paint0_linear_487_244" x1="358.057" y1="18.2108" x2="369.363" y2="-11.2637" gradientUnits="userSpaceOnUse">
<stop stop-color="#6EC4F4" stop-opacity="0.2"/>
<stop offset="1" stop-color="#8D4DDF" stop-opacity="0.2"/>
</linearGradient>
<linearGradient id="paint1_linear_487_244" x1="281.299" y1="40.9848" x2="306.696" y2="-32.0336" gradientUnits="userSpaceOnUse">
<stop stop-color="#6EC4F4" stop-opacity="0.2"/>
<stop offset="1" stop-color="#8D4DDF" stop-opacity="0.2"/>
</linearGradient>
<linearGradient id="paint2_linear_487_244" x1="206.682" y1="66.7082" x2="249.85" y2="-53.6341" gradientUnits="userSpaceOnUse">
<stop stop-color="#6EC4F4" stop-opacity="0.2"/>
<stop offset="1" stop-color="#8D4DDF" stop-opacity="0.2"/>
</linearGradient>
<linearGradient id="paint3_linear_487_244" x1="156.183" y1="273.262" x2="222.794" y2="108.412" gradientUnits="userSpaceOnUse">
<stop stop-color="#6EC4F4" stop-opacity="0.2"/>
<stop offset="1" stop-color="#8D4DDF" stop-opacity="0.2"/>
</linearGradient>
<linearGradient id="paint4_linear_487_244" x1="339.937" y1="243.92" x2="369.713" y2="191.664" gradientUnits="userSpaceOnUse">
<stop stop-color="#6EC4F4" stop-opacity="0.2"/>
<stop offset="1" stop-color="#8D4DDF" stop-opacity="0.2"/>
</linearGradient>
<linearGradient id="paint5_linear_487_244" x1="-82.2128" y1="328.816" x2="242.724" y2="-117.45" gradientUnits="userSpaceOnUse">
<stop stop-color="#6EC4F4" stop-opacity="0.2"/>
<stop offset="1" stop-color="#8D4DDF" stop-opacity="0.2"/>
</linearGradient>
<linearGradient id="paint6_linear_487_244" x1="-288.352" y1="510.705" x2="37.8288" y2="-62.2726" gradientUnits="userSpaceOnUse">
<stop stop-color="#6EC4F4" stop-opacity="0.2"/>
<stop offset="1" stop-color="#8D4DDF" stop-opacity="0.2"/>
</linearGradient>
<linearGradient id="paint7_linear_487_244" x1="151.432" y1="547.687" x2="253.938" y2="350.316" gradientUnits="userSpaceOnUse">
<stop stop-color="#6EC4F4" stop-opacity="0.2"/>
<stop offset="1" stop-color="#8D4DDF" stop-opacity="0.2"/>
</linearGradient>
<linearGradient id="paint8_linear_487_244" x1="-288.746" y1="587.777" x2="-126.186" y2="152.673" gradientUnits="userSpaceOnUse">
<stop stop-color="#6EC4F4" stop-opacity="0.2"/>
<stop offset="1" stop-color="#8D4DDF" stop-opacity="0.2"/>
</linearGradient>
<linearGradient id="paint9_linear_487_244" x1="-288.849" y1="610.261" x2="-115.735" y2="163.18" gradientUnits="userSpaceOnUse">
<stop stop-color="#6EC4F4" stop-opacity="0.2"/>
<stop offset="1" stop-color="#8D4DDF" stop-opacity="0.2"/>
</linearGradient>
<linearGradient id="paint10_linear_487_244" x1="-288.924" y1="626.353" x2="-120.111" y2="184.083" gradientUnits="userSpaceOnUse">
<stop stop-color="#6EC4F4" stop-opacity="0.2"/>
<stop offset="1" stop-color="#8D4DDF" stop-opacity="0.2"/>
</linearGradient>
<linearGradient id="paint11_linear_487_244" x1="54.0884" y1="682.321" x2="188.921" y2="413.937" gradientUnits="userSpaceOnUse">
<stop stop-color="#6EC4F4" stop-opacity="0.2"/>
<stop offset="1" stop-color="#8D4DDF" stop-opacity="0.2"/>
</linearGradient>
<linearGradient id="paint12_linear_487_244" x1="256.61" y1="665.825" x2="374.863" y2="527.756" gradientUnits="userSpaceOnUse">
<stop stop-color="#6EC4F4" stop-opacity="0.2"/>
<stop offset="1" stop-color="#8D4DDF" stop-opacity="0.2"/>
</linearGradient>
<linearGradient id="paint13_linear_487_244" x1="331.225" y1="647.403" x2="398.685" y2="579.801" gradientUnits="userSpaceOnUse">
<stop stop-color="#6EC4F4" stop-opacity="0.2"/>
<stop offset="1" stop-color="#8D4DDF" stop-opacity="0.2"/>
</linearGradient>
<linearGradient id="paint14_linear_487_244" x1="368.437" y1="634.685" x2="396.934" y2="603.257" gradientUnits="userSpaceOnUse">
<stop stop-color="#6EC4F4" stop-opacity="0.2"/>
<stop offset="1" stop-color="#8D4DDF" stop-opacity="0.2"/>
</linearGradient>
<linearGradient id="paint15_linear_487_244" x1="-281.482" y1="500.442" x2="226.773" y2="-133.283" gradientUnits="userSpaceOnUse">
<stop stop-color="#6EC4F4" stop-opacity="0.2"/>
<stop offset="1" stop-color="#8D4DDF" stop-opacity="0.2"/>
</linearGradient>
<linearGradient id="paint16_linear_487_244" x1="-273.755" y1="472.445" x2="203.318" y2="-137.41" gradientUnits="userSpaceOnUse">
<stop stop-color="#6EC4F4" stop-opacity="0.2"/>
<stop offset="1" stop-color="#8D4DDF" stop-opacity="0.2"/>
</linearGradient>
<linearGradient id="paint17_linear_487_244" x1="119.988" y1="421.114" x2="226.429" y2="225.451" gradientUnits="userSpaceOnUse">
<stop stop-color="#6EC4F4" stop-opacity="0.2"/>
<stop offset="1" stop-color="#8D4DDF" stop-opacity="0.2"/>
</linearGradient>
<linearGradient id="paint18_linear_487_244" x1="151.329" y1="399.525" x2="211.677" y2="261.047" gradientUnits="userSpaceOnUse">
<stop stop-color="#6EC4F4" stop-opacity="0.2"/>
<stop offset="1" stop-color="#8D4DDF" stop-opacity="0.2"/>
</linearGradient>
<linearGradient id="paint19_linear_487_244" x1="256.443" y1="381.828" x2="295.891" y2="314.497" gradientUnits="userSpaceOnUse">
<stop stop-color="#6EC4F4" stop-opacity="0.2"/>
<stop offset="1" stop-color="#8D4DDF" stop-opacity="0.2"/>
</linearGradient>
<linearGradient id="paint20_linear_487_244" x1="-248.497" y1="151.945" x2="-165.264" y2="-141.085" gradientUnits="userSpaceOnUse">
<stop stop-color="#6EC4F4" stop-opacity="0.2"/>
<stop offset="1" stop-color="#8D4DDF" stop-opacity="0.2"/>
</linearGradient>
<linearGradient id="paint21_linear_487_244" x1="244.869" y1="520.751" x2="265.111" y2="467.464" gradientUnits="userSpaceOnUse">
<stop stop-color="#6EC4F4" stop-opacity="0.2"/>
<stop offset="1" stop-color="#8D4DDF" stop-opacity="0.2"/>
</linearGradient>
<linearGradient id="paint22_linear_487_244" x1="-0.952388" y1="675.465" x2="39.5075" y2="522.448" gradientUnits="userSpaceOnUse">
<stop stop-color="#6EC4F4" stop-opacity="0.2"/>
<stop offset="1" stop-color="#8D4DDF" stop-opacity="0.2"/>
</linearGradient>
<linearGradient id="paint23_linear_487_244" x1="170.348" y1="128.382" x2="204.552" y2="36.3021" gradientUnits="userSpaceOnUse">
<stop stop-color="#6EC4F4" stop-opacity="0.2"/>
<stop offset="1" stop-color="#8D4DDF" stop-opacity="0.2"/>
</linearGradient>
<linearGradient id="paint24_linear_487_244" x1="46.1322" y1="674.121" x2="76.0655" y2="558.499" gradientUnits="userSpaceOnUse">
<stop stop-color="#6EC4F4" stop-opacity="0.2"/>
<stop offset="1" stop-color="#8D4DDF" stop-opacity="0.2"/>
</linearGradient>
<linearGradient id="paint25_linear_487_244" x1="240.243" y1="249.758" x2="271.092" y2="200.985" gradientUnits="userSpaceOnUse">
<stop stop-color="#6EC4F4" stop-opacity="0.2"/>
<stop offset="1" stop-color="#8D4DDF" stop-opacity="0.2"/>
</linearGradient>
<linearGradient id="paint26_linear_487_244" x1="103.96" y1="672.585" x2="121.376" y2="600.016" gradientUnits="userSpaceOnUse">
<stop stop-color="#6EC4F4" stop-opacity="0.2"/>
<stop offset="1" stop-color="#8D4DDF" stop-opacity="0.2"/>
</linearGradient>
<linearGradient id="paint27_linear_487_244" x1="139.818" y1="671.469" x2="148.121" y2="629.554" gradientUnits="userSpaceOnUse">
<stop stop-color="#6EC4F4" stop-opacity="0.2"/>
<stop offset="1" stop-color="#8D4DDF" stop-opacity="0.2"/>
</linearGradient>
<linearGradient id="paint28_linear_487_244" x1="185.418" y1="670.371" x2="186.697" y2="659.431" gradientUnits="userSpaceOnUse">
<stop stop-color="#6EC4F4" stop-opacity="0.2"/>
<stop offset="1" stop-color="#8D4DDF" stop-opacity="0.2"/>
</linearGradient>
<linearGradient id="paint29_linear_487_244" x1="-19.0938" y1="568.082" x2="88.4638" y2="373.782" gradientUnits="userSpaceOnUse">
<stop stop-color="#6EC4F4" stop-opacity="0.2"/>
<stop offset="1" stop-color="#8D4DDF" stop-opacity="0.2"/>
</linearGradient>
<linearGradient id="paint30_linear_487_244" x1="23.9059" y1="555.339" x2="101.761" y2="420.751" gradientUnits="userSpaceOnUse">
<stop stop-color="#6EC4F4" stop-opacity="0.2"/>
<stop offset="1" stop-color="#8D4DDF" stop-opacity="0.2"/>
</linearGradient>
<linearGradient id="paint31_linear_487_244" x1="-182.686" y1="92.1893" x2="-136.906" y2="-88.4458" gradientUnits="userSpaceOnUse">
<stop stop-color="#6EC4F4" stop-opacity="0.2"/>
<stop offset="1" stop-color="#8D4DDF" stop-opacity="0.2"/>
</linearGradient>
<linearGradient id="paint32_linear_487_244" x1="-22.5526" y1="299.28" x2="38.23" y2="151.707" gradientUnits="userSpaceOnUse">
<stop stop-color="#6EC4F4" stop-opacity="0.2"/>
<stop offset="1" stop-color="#8D4DDF" stop-opacity="0.2"/>
</linearGradient>
<linearGradient id="paint33_linear_487_244" x1="45.0664" y1="279.159" x2="76.7059" y2="227.588" gradientUnits="userSpaceOnUse">
<stop stop-color="#6EC4F4" stop-opacity="0.2"/>
<stop offset="1" stop-color="#8D4DDF" stop-opacity="0.2"/>
</linearGradient>
<linearGradient id="paint34_linear_487_244" x1="-162.343" y1="64.7849" x2="-135.241" y2="-64.8044" gradientUnits="userSpaceOnUse">
<stop stop-color="#6EC4F4" stop-opacity="0.2"/>
<stop offset="1" stop-color="#8D4DDF" stop-opacity="0.2"/>
</linearGradient>
<linearGradient id="paint35_linear_487_244" x1="69.5554" y1="176.784" x2="118.257" y2="90.4763" gradientUnits="userSpaceOnUse">
<stop stop-color="#6EC4F4" stop-opacity="0.2"/>
<stop offset="1" stop-color="#8D4DDF" stop-opacity="0.2"/>
</linearGradient>
<linearGradient id="paint36_linear_487_244" x1="100.879" y1="158.736" x2="115.346" y2="121.307" gradientUnits="userSpaceOnUse">
<stop stop-color="#6EC4F4" stop-opacity="0.2"/>
<stop offset="1" stop-color="#8D4DDF" stop-opacity="0.2"/>
</linearGradient>
<linearGradient id="paint37_linear_487_244" x1="89.5435" y1="359.494" x2="139.29" y2="287.925" gradientUnits="userSpaceOnUse">
<stop stop-color="#6EC4F4" stop-opacity="0.2"/>
<stop offset="1" stop-color="#8D4DDF" stop-opacity="0.2"/>
</linearGradient>
<linearGradient id="paint38_linear_487_244" x1="116.477" y1="343.595" x2="135.768" y2="308.703" gradientUnits="userSpaceOnUse">
<stop stop-color="#6EC4F4" stop-opacity="0.2"/>
<stop offset="1" stop-color="#8D4DDF" stop-opacity="0.2"/>
</linearGradient>
<linearGradient id="paint39_linear_487_244" x1="111.385" y1="8.00527" x2="114.098" y2="-6.56854" gradientUnits="userSpaceOnUse">
<stop stop-color="#6EC4F4" stop-opacity="0.2"/>
<stop offset="1" stop-color="#8D4DDF" stop-opacity="0.2"/>
</linearGradient>
<linearGradient id="paint40_linear_487_244" x1="-140.834" y1="691.093" x2="150.948" y2="430.304" gradientUnits="userSpaceOnUse">
<stop stop-color="#6EC4F4" stop-opacity="0.2"/>
<stop offset="1" stop-color="#8D4DDF" stop-opacity="0.2"/>
</linearGradient>
<linearGradient id="paint41_linear_487_244" x1="-4.12121" y1="674.065" x2="54.4386" y2="584.013" gradientUnits="userSpaceOnUse">
<stop stop-color="#6EC4F4" stop-opacity="0.2"/>
<stop offset="1" stop-color="#8D4DDF" stop-opacity="0.2"/>
</linearGradient>
<linearGradient id="paint42_linear_487_244" x1="28.5924" y1="666.035" x2="54.8016" y2="621.619" gradientUnits="userSpaceOnUse">
<stop stop-color="#6EC4F4" stop-opacity="0.2"/>
<stop offset="1" stop-color="#8D4DDF" stop-opacity="0.2"/>
</linearGradient>
<linearGradient id="paint43_linear_487_244" x1="-112.854" y1="569.856" x2="34.6532" y2="387.161" gradientUnits="userSpaceOnUse">
<stop stop-color="#6EC4F4" stop-opacity="0.2"/>
<stop offset="1" stop-color="#8D4DDF" stop-opacity="0.2"/>
</linearGradient>
<linearGradient id="paint44_linear_487_244" x1="-92.0682" y1="679.105" x2="42.6882" y2="550.326" gradientUnits="userSpaceOnUse">
<stop stop-color="#6EC4F4" stop-opacity="0.2"/>
<stop offset="1" stop-color="#8D4DDF" stop-opacity="0.2"/>
</linearGradient>
<linearGradient id="paint45_linear_487_244" x1="-88.6694" y1="382.787" x2="102.282" y2="279.216" gradientUnits="userSpaceOnUse">
<stop stop-color="#6EC4F4" stop-opacity="0.2"/>
<stop offset="1" stop-color="#8D4DDF" stop-opacity="0.2"/>
</linearGradient>
<linearGradient id="paint46_linear_487_244" x1="-85.6819" y1="42.6709" x2="-56.5005" y2="-35.1971" gradientUnits="userSpaceOnUse">
<stop stop-color="#6EC4F4" stop-opacity="0.2"/>
<stop offset="1" stop-color="#8D4DDF" stop-opacity="0.2"/>
</linearGradient>
<linearGradient id="paint47_linear_487_244" x1="-81.6206" y1="677.494" x2="30.9366" y2="577.898" gradientUnits="userSpaceOnUse">
<stop stop-color="#6EC4F4" stop-opacity="0.2"/>
<stop offset="1" stop-color="#8D4DDF" stop-opacity="0.2"/>
</linearGradient>
<linearGradient id="paint48_linear_487_244" x1="-71.9104" y1="364.756" x2="60.9411" y2="309.698" gradientUnits="userSpaceOnUse">
<stop stop-color="#6EC4F4" stop-opacity="0.2"/>
<stop offset="1" stop-color="#8D4DDF" stop-opacity="0.2"/>
</linearGradient>
<linearGradient id="paint49_linear_487_244" x1="-67.6334" y1="21.139" x2="-54.9796" y2="-18.857" gradientUnits="userSpaceOnUse">
<stop stop-color="#6EC4F4" stop-opacity="0.2"/>
<stop offset="1" stop-color="#8D4DDF" stop-opacity="0.2"/>
</linearGradient>
</defs>
</svg>
