<svg width="829" height="829" viewBox="0 0 829 829" fill="none" xmlns="http://www.w3.org/2000/svg">
<g filter="url(#filter0_d_348_39)">
<path d="M239.345 343.058C245.694 338.989 254.032 343.549 254.032 351.09V486.006L239.554 511.085C238.085 513.628 239.921 516.808 242.858 516.808H254.032V574.047C254.032 579.316 249.761 583.587 244.492 583.587H177.714C172.445 583.587 168.174 579.316 168.174 574.047V393.894C168.174 390.644 169.829 387.616 172.565 385.862L239.345 343.058ZM353.764 272.654C360.11 268.521 368.51 273.075 368.51 280.648V426.86L354.031 451.938C352.563 454.482 354.399 457.662 357.336 457.662H368.51V574.047C368.509 579.316 364.238 583.587 358.97 583.587H292.191C286.923 583.586 282.652 579.316 282.651 574.047V516.808H295.733C298.671 516.808 300.507 513.628 299.038 511.085L282.651 482.702V324.142C282.651 320.916 284.282 317.91 286.985 316.149L353.764 272.654ZM468.198 202.203C474.541 198.022 482.987 202.571 482.987 210.168V354.357L468.509 379.435C467.04 381.979 468.876 385.159 471.813 385.159H482.987V574.047C482.987 579.316 478.717 583.586 473.448 583.587H406.724C401.434 583.587 397.154 579.282 397.184 573.993L397.845 457.662H410.211C413.148 457.662 414.984 454.482 413.516 451.938L398.029 425.116L399.009 252.888C399.027 249.7 400.636 246.732 403.298 244.977L468.198 202.203ZM581.739 132.603C588.073 128.406 596.532 132.938 596.548 140.536L597.445 574.027C597.456 579.303 593.182 583.586 587.906 583.587H521.281C515.961 583.586 511.669 579.234 511.743 573.914L514.39 385.159H524.688C527.626 385.159 529.462 381.979 527.993 379.435L514.789 356.566L517.261 180.319C517.305 177.168 518.902 174.241 521.529 172.501L581.739 132.603Z" fill="url(#paint0_linear_348_39)"/>
</g>
<g filter="url(#filter1_d_348_39)">
<path d="M272.011 573.219C130.704 618.493 143.131 538.443 167.007 492.759C84.9016 611.929 174.248 640.119 229.185 639.317C380.117 635.307 567.479 463.871 642.293 378.655L671.502 412.025L705 263.878L557.137 314.129L593.494 338.198C545.211 397.674 413.318 527.946 272.011 573.219Z" fill="url(#paint1_linear_348_39)" shape-rendering="crispEdges"/>
</g>
<path d="M239.345 343.059C245.694 338.989 254.032 343.549 254.032 351.09V486.006L239.554 511.084C238.085 513.628 239.921 516.808 242.858 516.808H254.032V574.047C254.032 579.316 249.761 583.587 244.492 583.587H177.714C172.445 583.587 168.174 579.316 168.174 574.047V393.894C168.174 390.643 169.829 387.617 172.565 385.863L239.345 343.059Z" fill="url(#paint2_linear_348_39)"/>
<defs>
<filter id="filter0_d_348_39" x="162.149" y="131" width="441.321" height="464.636" filterUnits="userSpaceOnUse" color-interpolation-filters="sRGB">
<feFlood flood-opacity="0" result="BackgroundImageFix"/>
<feColorMatrix in="SourceAlpha" type="matrix" values="0 0 0 0 0 0 0 0 0 0 0 0 0 0 0 0 0 0 127 0" result="hardAlpha"/>
<feOffset dy="6.02485"/>
<feGaussianBlur stdDeviation="3.01243"/>
<feComposite in2="hardAlpha" operator="out"/>
<feColorMatrix type="matrix" values="0 0 0 0 0 0 0 0 0 0 0 0 0 0 0 0 0 0 0.25 0"/>
<feBlend mode="normal" in2="BackgroundImageFix" result="effect1_dropShadow_348_39"/>
<feBlend mode="normal" in="SourceGraphic" in2="effect1_dropShadow_348_39" result="shape"/>
</filter>
<filter id="filter1_d_348_39" x="130.8" y="253.335" width="619.387" height="423.654" filterUnits="userSpaceOnUse" color-interpolation-filters="sRGB">
<feFlood flood-opacity="0" result="BackgroundImageFix"/>
<feColorMatrix in="SourceAlpha" type="matrix" values="0 0 0 0 0 0 0 0 0 0 0 0 0 0 0 0 0 0 127 0" result="hardAlpha"/>
<feOffset dx="21.087" dy="13.5559"/>
<feGaussianBlur stdDeviation="12.0497"/>
<feComposite in2="hardAlpha" operator="out"/>
<feColorMatrix type="matrix" values="0 0 0 0 0.257692 0 0 0 0 0.241123 0 0 0 0 0.204915 0 0 0 0.32 0"/>
<feBlend mode="normal" in2="BackgroundImageFix" result="effect1_dropShadow_348_39"/>
<feBlend mode="normal" in="SourceGraphic" in2="effect1_dropShadow_348_39" result="shape"/>
</filter>
<linearGradient id="paint0_linear_348_39" x1="382.81" y1="131" x2="382.81" y2="583.587" gradientUnits="userSpaceOnUse">
<stop stop-color="#B9A9F7"/>
<stop offset="1" stop-color="#6D4FDE"/>
</linearGradient>
<linearGradient id="paint1_linear_348_39" x1="585.395" y1="162.631" x2="50.6892" y2="623.532" gradientUnits="userSpaceOnUse">
<stop stop-color="#ECE9E9"/>
<stop offset="1" stop-color="#F2F2F2" stop-opacity="0.88"/>
</linearGradient>
<linearGradient id="paint2_linear_348_39" x1="211.103" y1="341.535" x2="211.103" y2="583.587" gradientUnits="userSpaceOnUse">
<stop stop-color="#B9A9F7"/>
<stop offset="1" stop-color="#694EDA"/>
</linearGradient>
</defs>
</svg>
