<svg width="32" height="32" viewBox="0 0 32 32" fill="none" xmlns="http://www.w3.org/2000/svg">
<path d="M7.5 28.9693C6.53138 27.8742 5.99773 26.462 6 25V7C6 5.47867 6.56667 4.08933 7.5 3.03067C6.53325 3.15247 5.6442 3.62296 4.99977 4.35381C4.35533 5.08466 3.99983 6.02561 4 7V25C3.99983 25.9744 4.35533 26.9153 4.99977 27.6462C5.6442 28.377 6.53325 28.8475 7.5 28.9693ZM11.5 28.9693C10.5314 27.8742 9.99773 26.462 10 25V7C10 5.47867 10.5667 4.08933 11.5 3.03067C10.5332 3.15247 9.6442 3.62296 8.99977 4.35381C8.35533 5.08466 7.99983 6.02561 8 7V25C7.99983 25.9744 8.35533 26.9153 8.99977 27.6462C9.6442 28.377 10.5332 28.8475 11.5 28.9693ZM12 25C12 26.0609 12.4214 27.0783 13.1716 27.8284C13.9217 28.5786 14.9391 29 16 29H24C25.0609 29 26.0783 28.5786 26.8284 27.8284C27.5786 27.0783 28 26.0609 28 25V7C28 5.93913 27.5786 4.92172 26.8284 4.17157C26.0783 3.42143 25.0609 3 24 3H16C14.9391 3 13.9217 3.42143 13.1716 4.17157C12.4214 4.92172 12 5.93913 12 7V12C12 12.2652 12.1054 12.5196 12.2929 12.7071C12.4804 12.8946 12.7348 13 13 13C13.7956 13 14.5587 13.3161 15.1213 13.8787C15.6839 14.4413 16 15.2044 16 16C16 16.7956 15.6839 17.5587 15.1213 18.1213C14.5587 18.6839 13.7956 19 13 19C12.7348 19 12.4804 19.1054 12.2929 19.2929C12.1054 19.4804 12 19.7348 12 20V25Z" fill="white"/>
</svg>
