<svg width="35" height="35" viewBox="0 0 35 35" fill="none" xmlns="http://www.w3.org/2000/svg">
<path fill-rule="evenodd" clip-rule="evenodd" d="M19.0137 9.61864C19.0409 9.38847 19.1583 9.1785 19.3402 9.0348C19.522 8.8911 19.7534 8.82541 19.9836 8.85215L27.3585 9.71526C27.4727 9.72864 27.5832 9.76442 27.6836 9.82054C27.784 9.87666 27.8723 9.95202 27.9435 10.0423C28.0148 10.1326 28.0675 10.2361 28.0988 10.3468C28.13 10.4575 28.1391 10.5732 28.1255 10.6874L27.2618 18.06C27.2514 18.1764 27.2177 18.2896 27.1628 18.3928C27.1079 18.496 27.0329 18.5871 26.9422 18.6608C26.8515 18.7346 26.7469 18.7894 26.6347 18.822C26.5225 18.8546 26.4048 18.8645 26.2887 18.8509C26.1726 18.8373 26.0604 18.8006 25.9587 18.743C25.8571 18.6853 25.768 18.6079 25.6967 18.5152C25.6255 18.4226 25.5735 18.3166 25.5439 18.2035C25.5143 18.0904 25.5076 17.9725 25.5243 17.8568L26.1405 12.5811L25.0525 13.4416C22.6883 15.3035 21.0393 17.9245 20.384 20.8616C20.3538 20.9964 20.292 21.1222 20.2039 21.2285C20.1157 21.3349 20.0036 21.4188 19.8767 21.4735C19.7498 21.5282 19.6118 21.5521 19.4739 21.5432C19.3361 21.5343 19.2023 21.4929 19.0835 21.4223L13.7261 18.2455L8.48934 27.0712C8.36876 27.2664 8.17634 27.4064 7.95353 27.4611C7.73071 27.5158 7.49533 27.4808 7.29807 27.3637C7.10081 27.2465 6.95747 27.0565 6.89891 26.8347C6.84035 26.6129 6.87126 26.3769 6.98498 26.1777L12.668 16.5998C12.7865 16.4005 12.9792 16.2563 13.2039 16.199C13.4285 16.1417 13.6668 16.1758 13.8663 16.294L18.9829 19.33C19.87 16.4599 21.6089 13.9274 23.9688 12.0686L25.0571 11.2093L19.7808 10.5908C19.6665 10.5776 19.5559 10.5419 19.4554 10.4859C19.3549 10.4298 19.2664 10.3545 19.1951 10.2642C19.1237 10.1739 19.0709 10.0705 19.0396 9.95975C19.0083 9.84902 18.9991 9.7332 19.0126 9.61893L19.0137 9.61864Z" fill="#B2B2B2"/>
</svg>
