<svg width="28" height="28" viewBox="0 0 28 28" fill="none" xmlns="http://www.w3.org/2000/svg">
<g filter="url(#filter0_d_340_18)">
<path d="M7.39673 11.2256C7.64294 11.0679 7.96587 11.2448 7.96606 11.5371V16.7705L7.40454 17.7432C7.34757 17.8418 7.4195 17.9658 7.53345 17.9658H7.96606V20.1855C7.96606 20.3899 7.80032 20.5557 7.59595 20.5557H5.0061C4.80173 20.5557 4.63599 20.3899 4.63599 20.1855V13.1973C4.6361 13.0714 4.70001 12.9538 4.80591 12.8857L7.39673 11.2256ZM11.8352 8.49414C12.0812 8.33428 12.4073 8.51122 12.4075 8.80469V14.4756L11.8459 15.4492C11.789 15.5479 11.8599 15.6709 11.9739 15.6709H12.4075V20.1855C12.4075 20.3898 12.2416 20.5555 12.0374 20.5557H9.44653C9.24222 20.5556 9.07642 20.3899 9.07642 20.1855V17.9658H9.58423C9.69812 17.9657 9.76912 17.8418 9.71216 17.7432L9.07642 16.6416V10.4922C9.07651 10.3672 9.13971 10.2499 9.24438 10.1816L11.8352 8.49414ZM16.2747 5.76172C16.5206 5.59992 16.8477 5.77591 16.8479 6.07031V11.6631L16.2864 12.6367C16.2295 12.7353 16.3005 12.8582 16.4143 12.8584H16.8479V20.1855C16.8479 20.3899 16.6822 20.5557 16.4778 20.5557H13.8899C13.6847 20.5557 13.5187 20.3887 13.5198 20.1836L13.5452 15.6709H14.0247C14.1384 15.6708 14.2102 15.5478 14.1536 15.4492L13.552 14.4082L13.5901 7.72754C13.5909 7.60397 13.6539 7.48891 13.7571 7.4209L16.2747 5.76172ZM20.679 3.06152C20.9245 2.89927 21.2523 3.0748 21.2532 3.36914L21.2874 20.1846C21.2878 20.3891 21.1227 20.5554 20.9182 20.5557H18.3333C18.127 20.5556 17.9604 20.3869 17.9631 20.1807L18.0657 12.8584H18.4661C18.5796 12.858 18.6507 12.7352 18.594 12.6367L18.0803 11.748L18.177 4.91211C18.1789 4.79013 18.2413 4.67679 18.343 4.60938L20.679 3.06152Z" fill="#B2B2B2"/>
</g>
<g filter="url(#filter1_d_340_18)">
<path d="M8.66387 20.1538C3.18244 21.91 3.66448 18.8048 4.59069 17.0327C1.40573 21.6554 4.87157 22.7489 7.00261 22.7178C12.8574 22.5622 20.1253 15.9121 23.0275 12.6065L24.1605 13.9009L25.4599 8.15419L19.7242 10.1035L21.1345 11.0371C19.2616 13.3443 14.1453 18.3976 8.66387 20.1538Z" fill="url(#paint0_linear_340_18)" shape-rendering="crispEdges"/>
</g>
<path d="M7.39673 11.2261C7.64303 11.0682 7.96606 11.2451 7.96606 11.5376V16.771L7.40454 17.7437C7.34808 17.8423 7.41973 17.9653 7.53345 17.9654H7.96606V20.1861C7.96598 20.3904 7.80027 20.5562 7.59595 20.5562H5.0061C4.80179 20.5562 4.63607 20.3904 4.63599 20.1861V13.1978C4.63599 13.0719 4.7 12.9543 4.80591 12.8863L7.39673 11.2261Z" fill="#B2B2B2"/>
<defs>
<filter id="filter0_d_340_18" x="4.40228" y="2.99963" width="17.1188" height="18.0234" filterUnits="userSpaceOnUse" color-interpolation-filters="sRGB">
<feFlood flood-opacity="0" result="BackgroundImageFix"/>
<feColorMatrix in="SourceAlpha" type="matrix" values="0 0 0 0 0 0 0 0 0 0 0 0 0 0 0 0 0 0 127 0" result="hardAlpha"/>
<feOffset dy="0.23371"/>
<feGaussianBlur stdDeviation="0.116855"/>
<feComposite in2="hardAlpha" operator="out"/>
<feColorMatrix type="matrix" values="0 0 0 0 0 0 0 0 0 0 0 0 0 0 0 0 0 0 0.25 0"/>
<feBlend mode="normal" in2="BackgroundImageFix" result="effect1_dropShadow_340_18"/>
<feBlend mode="normal" in="SourceGraphic" in2="effect1_dropShadow_340_18" result="shape"/>
</filter>
<filter id="filter1_d_340_18" x="3.18618" y="7.74518" width="24.0265" height="16.434" filterUnits="userSpaceOnUse" color-interpolation-filters="sRGB">
<feFlood flood-opacity="0" result="BackgroundImageFix"/>
<feColorMatrix in="SourceAlpha" type="matrix" values="0 0 0 0 0 0 0 0 0 0 0 0 0 0 0 0 0 0 127 0" result="hardAlpha"/>
<feOffset dx="0.817984" dy="0.525847"/>
<feGaussianBlur stdDeviation="0.467419"/>
<feComposite in2="hardAlpha" operator="out"/>
<feColorMatrix type="matrix" values="0 0 0 0 0.257692 0 0 0 0 0.241123 0 0 0 0 0.204915 0 0 0 0.32 0"/>
<feBlend mode="normal" in2="BackgroundImageFix" result="effect1_dropShadow_340_18"/>
<feBlend mode="normal" in="SourceGraphic" in2="effect1_dropShadow_340_18" result="shape"/>
</filter>
<linearGradient id="paint0_linear_340_18" x1="20.8203" y1="4.22671" x2="0.0785965" y2="22.1055" gradientUnits="userSpaceOnUse">
<stop stop-color="#ECE9E9"/>
<stop offset="1" stop-color="#F2F2F2" stop-opacity="0.88"/>
</linearGradient>
</defs>
</svg>
