<svg width="30" height="30" viewBox="0 0 30 30" fill="none" xmlns="http://www.w3.org/2000/svg">
<path fill-rule="evenodd" clip-rule="evenodd" d="M25.5003 14.9998C25.5003 15.2982 25.3817 15.5843 25.1708 15.7953C24.9598 16.0063 24.6736 16.1248 24.3753 16.1248H8.41826L14.6553 22.0648C14.7668 22.166 14.8568 22.2885 14.9202 22.4251C14.9835 22.5617 15.0187 22.7096 15.0238 22.8601C15.0289 23.0106 15.0037 23.1605 14.9497 23.3011C14.8958 23.4417 14.8142 23.57 14.7098 23.6784C14.6053 23.7869 14.4802 23.8733 14.3418 23.9325C14.2033 23.9917 14.0544 24.0225 13.9039 24.0231C13.7533 24.0237 13.6042 23.994 13.4653 23.9359C13.3264 23.8778 13.2005 23.7924 13.0953 23.6848L4.84526 15.8098C4.73638 15.7049 4.64977 15.5791 4.59062 15.4399C4.53146 15.3007 4.50098 15.151 4.50098 14.9998C4.50098 14.8486 4.53146 14.6989 4.59062 14.5598C4.64977 14.4206 4.73638 14.2948 4.84526 14.1898L13.0953 6.31483C13.2005 6.20721 13.3264 6.12181 13.4653 6.06371C13.6042 6.00561 13.7533 5.97598 13.9039 5.97657C14.0544 5.97717 14.2033 6.00798 14.3418 6.06718C14.4802 6.12638 14.6053 6.21276 14.7098 6.32122C14.8142 6.42967 14.8958 6.55798 14.9497 6.69855C15.0037 6.83911 15.0289 6.98908 15.0238 7.13955C15.0187 7.29003 14.9835 7.43795 14.9202 7.57456C14.8568 7.71116 14.7668 7.83367 14.6553 7.93483L8.41826 13.8748H24.3753C24.6736 13.8748 24.9598 13.9934 25.1708 14.2043C25.3817 14.4153 25.5003 14.7015 25.5003 14.9998Z" fill="#694EDA"/>
</svg>
