<svg width="35" height="35" viewBox="0 0 35 35" fill="none" xmlns="http://www.w3.org/2000/svg">
<path fill-rule="evenodd" clip-rule="evenodd" d="M3.46191 6.05581C3.46191 5.36748 3.73535 4.70734 4.22208 4.22061C4.7088 3.73389 5.36895 3.46045 6.05728 3.46045H21.6295C22.3178 3.46045 22.9779 3.73389 23.4647 4.22061C23.9514 4.70734 24.2248 5.36748 24.2248 6.05581V26.3862C24.2248 27.6481 24.7261 28.8584 25.6185 29.7507C26.5108 30.643 27.7211 31.1443 28.983 31.1443H8.22008C6.95814 31.1443 5.74788 30.643 4.85555 29.7507C3.96322 28.8584 3.46191 27.6481 3.46191 26.3862V6.05581ZM9.95033 18.1675C9.60616 18.1675 9.27609 18.3042 9.03273 18.5476C8.78936 18.791 8.65264 19.121 8.65264 19.4652C8.65264 19.8094 8.78936 20.1394 9.03273 20.3828C9.27609 20.6262 9.60616 20.7629 9.95033 20.7629H17.7364C18.0806 20.7629 18.4107 20.6262 18.654 20.3828C18.8974 20.1394 19.0341 19.8094 19.0341 19.4652C19.0341 19.121 18.8974 18.791 18.654 18.5476C18.4107 18.3042 18.0806 18.1675 17.7364 18.1675H9.95033ZM9.95033 23.3582C9.60616 23.3582 9.27609 23.495 9.03273 23.7383C8.78936 23.9817 8.65264 24.3118 8.65264 24.6559C8.65264 25.0001 8.78936 25.3302 9.03273 25.5735C9.27609 25.8169 9.60616 25.9536 9.95033 25.9536H17.7364C18.0806 25.9536 18.4107 25.8169 18.654 25.5735C18.8974 25.3302 19.0341 25.0001 19.0341 24.6559C19.0341 24.3118 18.8974 23.9817 18.654 23.7383C18.4107 23.495 18.0806 23.3582 17.7364 23.3582H9.95033ZM8.65264 9.94886C8.65264 9.60469 8.78936 9.27462 9.03273 9.03126C9.27609 8.7879 9.60616 8.65118 9.95033 8.65118H17.7364C18.0806 8.65118 18.4107 8.7879 18.654 9.03126C18.8974 9.27462 19.0341 9.60469 19.0341 9.94886V14.2745C19.0341 14.6186 18.8974 14.9487 18.654 15.1921C18.4107 15.4354 18.0806 15.5722 17.7364 15.5722H9.95033C9.60616 15.5722 9.27609 15.4354 9.03273 15.1921C8.78936 14.9487 8.65264 14.6186 8.65264 14.2745V9.94886Z" fill="#694EDA"/>
<path d="M28.5491 11.2468H26.8188V26.3865C26.8188 26.9601 27.0467 27.5102 27.4523 27.9158C27.8579 28.3214 28.408 28.5493 28.9817 28.5493C29.5553 28.5493 30.1054 28.3214 30.511 27.9158C30.9166 27.5102 31.1445 26.9601 31.1445 26.3865V13.8422C31.1445 13.1539 30.871 12.4937 30.3843 12.007C29.8976 11.5203 29.2374 11.2468 28.5491 11.2468Z" fill="#694EDA"/>
</svg>
