<svg width="207" height="138" viewBox="0 0 207 138" fill="none" xmlns="http://www.w3.org/2000/svg">
<path d="M198 0C202.971 0 207 4.02944 207 9V129C207 133.971 202.971 138 198 138H9C4.02944 138 0 133.971 0 129V9C0 4.02944 4.02944 9.05985e-08 9 0H198ZM10.6396 3.00879C6.94111 3.19633 4 6.25486 4 10V128L4.00879 128.36C4.19028 131.94 7.06046 134.81 10.6396 134.991L11 135H196C199.745 135 202.804 132.059 202.991 128.36L203 128V10C203 6.13401 199.866 3 196 3H11L10.6396 3.00879ZM196 5.5C198.485 5.5 200.5 7.51472 200.5 10V128C200.5 130.485 198.485 132.5 196 132.5H11C8.51472 132.5 6.5 130.485 6.5 128V10C6.5 7.51472 8.51472 5.5 11 5.5H196ZM59.6602 6C58.5556 6 57.6602 6.89543 57.6602 8V14.6406C57.6602 15.4533 57.7737 16.3636 58.1494 17.2598C59.8337 21.2775 64.7453 28.0391 73.7861 28.0391C78.101 28.0391 82.1003 31.1572 83.2744 35.1934C83.8466 37.1605 83.7521 39.3608 82.6543 41.5762C81.5479 43.8089 79.3572 46.1803 75.5361 48.3096C75.0556 48.5773 74.4652 48.7236 73.8301 48.7236H15C10.5818 48.7236 7.00006 52.3054 7 56.7236V79.8525C7.00021 84.2706 10.5819 87.8525 15 87.8525H72.1367C75.005 88.3934 78.7989 89.7734 81.2695 92.0566C82.4982 93.1922 83.3336 94.4867 83.6494 95.96C83.9623 97.42 83.8113 99.268 82.6973 101.606L82.6934 101.614L82.6904 101.621C80.8235 105.624 77.5173 112.389 74.2441 118.391C72.6543 121.306 73 124.7 74.4248 127.296C75.853 129.898 78.5414 132 81.9463 132H128.458C134.988 132 138.697 124.67 135.378 119.282C132.985 115.398 130.598 111.206 128.815 107.439C127.924 105.556 127.198 103.809 126.699 102.28C126.192 100.725 125.959 99.5154 125.959 98.6689C125.959 95.1851 126.939 92.6647 128.657 90.9561C130.393 89.2309 133.147 88.0683 137.216 87.8545C138.071 87.8095 138.981 87.8079 139.945 87.8506C147.622 88.1906 175.052 88.0526 192.087 87.9072C196.481 87.8696 200 84.2942 200 79.9121V56.7236C200 52.3054 196.418 48.7236 192 48.7236H134.809C134.088 48.7236 133.45 48.5442 132.952 48.2178C129.571 46.0004 126.342 42.7242 125.52 39.2363C125.128 37.5757 125.262 35.8082 126.275 33.9258C127.312 31.9991 129.331 29.8427 132.899 27.6074C133.434 27.2723 134.099 27.0899 134.809 27.0898H149.775C150.88 27.0898 151.775 26.1943 151.775 25.0898C151.775 23.9853 150.88 23.0898 149.775 23.0898H134.809C133.428 23.0899 132.013 23.4434 130.776 24.2178C126.837 26.6857 124.223 29.3007 122.754 32.0293C121.262 34.802 121.017 37.5744 121.626 40.1543C122.804 45.1477 127.091 49.1574 130.759 51.5625C132.009 52.3823 133.439 52.7236 134.809 52.7236H135.11V84.0303C131.274 84.5146 128.12 85.8499 125.837 88.1191C123.172 90.7687 121.959 94.4241 121.959 98.6689C121.959 100.132 122.337 101.806 122.897 103.521C123.466 105.263 124.265 107.175 125.199 109.15C127.069 113.102 129.54 117.432 131.973 121.38C133.756 124.275 131.657 128 128.458 128H81.9463C80.31 128 78.8186 126.989 77.9307 125.371C77.0396 123.748 76.9322 121.816 77.7559 120.306C81.0802 114.21 84.4236 107.365 86.3145 103.312C87.7272 100.339 88.091 97.5958 87.5605 95.1211C87.032 92.6555 85.662 90.6686 83.9844 89.1182C81.2088 86.5532 77.4149 85.0152 74.3252 84.2412V52.708C75.3982 52.6419 76.4889 52.3579 77.4834 51.8037C81.8296 49.3818 84.6901 46.4765 86.2383 43.3525C87.7949 40.2113 87.9587 36.9757 87.1152 34.0762C85.4579 28.3789 79.9282 24.0391 73.7861 24.0391C67.0443 24.0391 63.2167 19.0026 61.8379 15.7139C61.7245 15.4434 61.6602 15.0929 61.6602 14.6406V8C61.6602 6.89555 60.7646 6.0002 59.6602 6ZM192 52.7236C194.209 52.7236 196 54.5145 196 56.7236V79.9121C196 82.1102 194.239 83.8884 192.053 83.9072C174.951 84.0531 147.664 84.1886 140.122 83.8545C139.781 83.8394 139.443 83.8294 139.11 83.8242V52.7236H192ZM70.3252 52.7236V83.8525H15C12.791 83.8525 11.0002 82.0615 11 79.8525V56.7236C11.0001 54.5145 12.7909 52.7236 15 52.7236H70.3252Z" fill="url(#paint0_linear_642_674)"/>
<defs>
<linearGradient id="paint0_linear_642_674" x1="11" y1="14.5" x2="192.5" y2="128" gradientUnits="userSpaceOnUse">
<stop stop-color="#E5D9B4"/>
<stop offset="1" stop-color="#BC7C24"/>
</linearGradient>
</defs>
</svg>
