<svg width="21" height="21" viewBox="0 0 21 21" fill="none" xmlns="http://www.w3.org/2000/svg">
<path d="M19.4633 5.11885C19.4233 4.95246 19.3506 4.79567 19.2495 4.65759C19.1484 4.51951 19.0208 4.40288 18.8743 4.31448C16.3183 2.76829 13.388 1.95093 10.4007 1.95093C7.41344 1.95093 4.48312 2.76829 1.92714 4.31448C1.78101 4.4031 1.6538 4.51966 1.55277 4.6575C1.45173 4.79533 1.37887 4.95174 1.33835 5.11776C1.29782 5.28378 1.29043 5.45617 1.31659 5.62505C1.34276 5.79393 1.40196 5.956 1.49082 6.10198L9.29083 18.8802C9.4067 19.0712 9.56986 19.2291 9.76455 19.3388C9.95924 19.4484 10.1789 19.506 10.4023 19.506C10.6258 19.506 10.8454 19.4484 11.0401 19.3388C11.2348 19.2291 11.398 19.0712 11.5138 18.8802L19.3138 6.10198C19.4028 5.95625 19.4618 5.79426 19.4875 5.62546C19.5132 5.45666 19.505 5.28444 19.4633 5.11885ZM5.16739 9.62823C5.37859 9.4292 5.63155 9.27981 5.90783 9.19097C6.1841 9.10213 6.47673 9.07607 6.76435 9.1147C7.05198 9.15334 7.32736 9.25568 7.5704 9.41427C7.81344 9.57286 8.01802 9.7837 8.16922 10.0314C8.32042 10.2791 8.41442 10.5575 8.44437 10.8461C8.47432 11.1348 8.43946 11.4265 8.34233 11.7C8.24521 11.9734 8.08827 12.2218 7.88296 12.4269C7.67765 12.632 7.42915 12.7887 7.15558 12.8855L5.16739 9.62823ZM12.3109 15.0679C11.9854 14.761 11.7753 14.3515 11.7159 13.908C11.6566 13.4646 11.7515 13.0142 11.9847 12.6325C12.218 12.2507 12.5754 11.9607 12.9971 11.8113C13.4188 11.6618 13.8791 11.6618 14.3007 11.8114L12.3109 15.0679ZM14.9865 10.6861C14.264 10.3582 13.4465 10.3059 12.6881 10.539C11.9298 10.7722 11.2829 11.2747 10.8694 11.9519C10.4559 12.629 10.3045 13.434 10.4435 14.2152C10.5826 14.9963 11.0026 15.6996 11.6243 16.1924L10.4007 18.2001L7.84133 14.01C8.26152 13.8207 8.63663 13.5441 8.94177 13.1987C9.24691 12.8533 9.4751 12.447 9.61119 12.0067C9.74728 11.5663 9.78816 11.1021 9.73112 10.6448C9.67408 10.1874 9.52042 9.74745 9.28035 9.35403C9.04027 8.96062 8.71926 8.62277 8.33863 8.3629C7.958 8.10303 7.52645 7.92709 7.07263 7.84675C6.6188 7.76641 6.15308 7.78351 5.70637 7.89692C5.25966 8.01033 4.84218 8.21746 4.48164 8.50454L3.9657 7.65873C5.90354 6.47584 8.12995 5.85001 10.4003 5.85001C12.6706 5.85001 14.8971 6.47584 16.8349 7.65873L14.9865 10.6861ZM17.5133 6.54804C15.371 5.24141 12.9101 4.55017 10.4007 4.55017C7.89132 4.55017 5.43043 5.24141 3.28807 6.54804L2.6007 5.42517C4.95389 4.00297 7.65113 3.25123 10.4007 3.25123C13.1503 3.25123 15.8475 4.00297 18.2007 5.42517L17.5133 6.54804Z" fill="#694EDA"/>
</svg>
