<svg width="28" height="28" viewBox="0 0 28 28" fill="none" xmlns="http://www.w3.org/2000/svg">
<path d="M13.3818 4.4813C13.5458 4.31744 13.7682 4.2254 14.0001 4.2254C14.232 4.2254 14.4544 4.31744 14.6184 4.4813L24.7568 14.6196C24.8375 14.7032 24.9341 14.7698 25.0409 14.8156C25.1476 14.8614 25.2625 14.8855 25.3787 14.8864C25.4948 14.8874 25.6101 14.8652 25.7176 14.8211C25.8251 14.7771 25.9227 14.7121 26.0049 14.6299C26.087 14.5477 26.1519 14.45 26.1958 14.3424C26.2398 14.2349 26.2619 14.1196 26.2608 14.0034C26.2597 13.8873 26.2356 13.7725 26.1896 13.6657C26.1437 13.559 26.077 13.4625 25.9934 13.3818L15.8563 3.24347C15.6125 2.99971 15.3231 2.80635 15.0046 2.67443C14.6862 2.54251 14.3448 2.47461 14.0001 2.47461C13.6554 2.47461 13.314 2.54251 12.9955 2.67443C12.6771 2.80635 12.3877 2.99971 12.1439 3.24347L2.0056 13.3818C1.92206 13.4626 1.85545 13.5591 1.80964 13.6659C1.76384 13.7727 1.73975 13.8875 1.7388 14.0037C1.73784 14.1199 1.76004 14.2351 1.80408 14.3426C1.84813 14.4501 1.91315 14.5478 1.99534 14.6299C2.07754 14.712 2.17526 14.7769 2.28282 14.8209C2.39037 14.8648 2.5056 14.8869 2.62178 14.8858C2.73796 14.8848 2.85277 14.8606 2.9595 14.8147C3.06623 14.7688 3.16275 14.7021 3.24343 14.6185L13.3818 4.4813Z" fill="#694EDA"/>
<path d="M14 6.33716L23.5188 15.856C23.5538 15.891 23.5888 15.9237 23.625 15.9563V23.1873C23.625 24.3948 22.645 25.3748 21.4375 25.3748H17.5C17.2679 25.3748 17.0454 25.2826 16.8813 25.1185C16.7172 24.9545 16.625 24.7319 16.625 24.4998V19.2498C16.625 19.0178 16.5328 18.7952 16.3687 18.6311C16.2046 18.467 15.9821 18.3748 15.75 18.3748H12.25C12.0179 18.3748 11.7954 18.467 11.6313 18.6311C11.4672 18.7952 11.375 19.0178 11.375 19.2498V24.4998C11.375 24.7319 11.2828 24.9545 11.1187 25.1185C10.9546 25.2826 10.7321 25.3748 10.5 25.3748H6.5625C5.98234 25.3748 5.42594 25.1444 5.0157 24.7341C4.60547 24.3239 4.375 23.7675 4.375 23.1873V15.9563C4.4113 15.9239 4.4467 15.8904 4.48117 15.856L14 6.33716Z" fill="#694EDA"/>
</svg>
