<svg width="27" height="27" viewBox="0 0 27 27" fill="none" xmlns="http://www.w3.org/2000/svg">
<path fill-rule="evenodd" clip-rule="evenodd" d="M3.97168 5.62607C3.97168 4.8361 4.2855 4.07847 4.8441 3.51988C5.40269 2.96128 6.16032 2.64746 6.95029 2.64746H14.2313C15.0213 2.64746 15.7789 2.96128 16.3375 3.51988C16.8961 4.07847 17.21 4.8361 17.21 5.62607V8.27373C17.21 8.53706 17.1054 8.7896 16.9192 8.9758C16.733 9.162 16.4804 9.2666 16.2171 9.2666C15.9538 9.2666 15.7012 9.162 15.515 8.9758C15.3288 8.7896 15.2242 8.53706 15.2242 8.27373V5.62607C15.2242 5.36275 15.1196 5.11021 14.9334 4.92401C14.7472 4.73781 14.4947 4.6332 14.2313 4.6332H6.95029C6.68697 4.6332 6.43443 4.73781 6.24823 4.92401C6.06203 5.11021 5.95742 5.36275 5.95742 5.62607V20.8501C5.95742 21.3982 6.40223 21.843 6.95029 21.843H14.2313C14.4947 21.843 14.7472 21.7384 14.9334 21.5522C15.1196 21.366 15.2242 21.1134 15.2242 20.8501V18.2024C15.2242 17.9391 15.3288 17.6866 15.515 17.5004C15.7012 17.3142 15.9538 17.2096 16.2171 17.2096C16.4804 17.2096 16.733 17.3142 16.9192 17.5004C17.1054 17.6866 17.21 17.9391 17.21 18.2024V20.8501C17.21 21.6401 16.8961 22.3977 16.3375 22.9563C15.7789 23.5149 15.0213 23.8287 14.2313 23.8287H6.95029C6.16032 23.8287 5.40269 23.5149 4.8441 22.9563C4.2855 22.3977 3.97168 21.6401 3.97168 20.8501V5.62607Z" fill="#F1F1F1"/>
<path fill-rule="evenodd" clip-rule="evenodd" d="M25.1528 13.2383C25.1528 12.975 25.0482 12.7225 24.862 12.5363C24.6758 12.3501 24.4233 12.2455 24.1599 12.2455H11.5227L12.91 10.9971C13.01 10.9107 13.0918 10.8052 13.1505 10.6869C13.2092 10.5685 13.2436 10.4396 13.2519 10.3077C13.2601 10.1758 13.2419 10.0436 13.1984 9.91884C13.1549 9.79407 13.0869 9.67925 12.9985 9.58109C12.91 9.48294 12.8028 9.40343 12.6832 9.34722C12.5637 9.29102 12.4341 9.25925 12.302 9.25378C12.17 9.24831 12.0382 9.26925 11.9144 9.31537C11.7906 9.36149 11.6772 9.43186 11.5809 9.52236L8.27134 12.501C8.1681 12.5941 8.08555 12.7078 8.02905 12.8348C7.97255 12.9619 7.94336 13.0993 7.94336 13.2383C7.94336 13.3774 7.97255 13.5148 8.02905 13.6419C8.08555 13.7689 8.1681 13.8826 8.27134 13.9757L11.5809 16.9543C11.6772 17.0448 11.7906 17.1152 11.9144 17.1613C12.0382 17.2074 12.17 17.2284 12.302 17.2229C12.4341 17.2174 12.5637 17.1857 12.6832 17.1295C12.8028 17.0733 12.91 16.9937 12.9985 16.8956C13.0869 16.7974 13.1549 16.6826 13.1984 16.5578C13.2419 16.4331 13.2601 16.3009 13.2519 16.169C13.2436 16.0371 13.2092 15.9082 13.1505 15.7898C13.0918 15.6714 13.01 15.566 12.91 15.4796L11.5227 14.2312H24.1599C24.2903 14.2312 24.4194 14.2055 24.5399 14.1556C24.6603 14.1057 24.7698 14.0326 24.862 13.9404C24.9542 13.8482 25.0273 13.7388 25.0772 13.6183C25.1271 13.4978 25.1528 13.3687 25.1528 13.2383Z" fill="#F1F1F1"/>
</svg>
