<svg width="29" height="29" viewBox="0 0 29 29" fill="none" xmlns="http://www.w3.org/2000/svg">
<path d="M7.9874 14.2C7.9874 14.4354 7.8939 14.6611 7.72746 14.8276C7.56102 14.994 7.33528 15.0875 7.0999 15.0875C6.86452 15.0875 6.63878 14.994 6.47235 14.8276C6.30591 14.6611 6.2124 14.4354 6.2124 14.2C6.2124 13.9646 6.30591 13.7389 6.47235 13.5724C6.63878 13.406 6.86452 13.3125 7.0999 13.3125C7.33528 13.3125 7.56102 13.406 7.72746 13.5724C7.8939 13.7389 7.9874 13.9646 7.9874 14.2ZM15.0874 14.2C15.0874 14.4354 14.9939 14.6611 14.8275 14.8276C14.661 14.994 14.4353 15.0875 14.1999 15.0875C13.9645 15.0875 13.7388 14.994 13.5724 14.8276C13.4059 14.6611 13.3124 14.4354 13.3124 14.2C13.3124 13.9646 13.4059 13.7389 13.5724 13.5724C13.7388 13.406 13.9645 13.3125 14.1999 13.3125C14.4353 13.3125 14.661 13.406 14.8275 13.5724C14.9939 13.7389 15.0874 13.9646 15.0874 14.2ZM22.1874 14.2C22.1874 14.4354 22.0939 14.6611 21.9275 14.8276C21.761 14.994 21.5353 15.0875 21.2999 15.0875C21.0645 15.0875 20.8388 14.994 20.6724 14.8276C20.5059 14.6611 20.4124 14.4354 20.4124 14.2C20.4124 13.9646 20.5059 13.7389 20.6724 13.5724C20.8388 13.406 21.0645 13.3125 21.2999 13.3125C21.5353 13.3125 21.761 13.406 21.9275 13.5724C22.0939 13.7389 22.1874 13.9646 22.1874 14.2Z" stroke="#694EDA" stroke-width="1.775" stroke-linecap="round" stroke-linejoin="round"/>
</svg>
