<svg width="28" height="28" viewBox="0 0 28 28" fill="none" xmlns="http://www.w3.org/2000/svg">
<path fill-rule="evenodd" clip-rule="evenodd" d="M22.0078 14.0029C22.0078 16.1247 21.165 18.1595 19.6647 19.6598C18.1644 21.1601 16.1295 22.0029 14.0078 22.0029C11.8861 22.0029 9.85125 21.1601 8.35096 19.6598C6.85067 18.1595 6.00781 16.1247 6.00781 14.0029C6.00781 11.8812 6.85067 9.84637 8.35096 8.34608C9.85125 6.84578 11.8861 6.00293 14.0078 6.00293C16.1295 6.00293 18.1644 6.84578 19.6647 8.34608C21.165 9.84637 22.0078 11.8812 22.0078 14.0029ZM12.9478 10.9429C12.8781 11.0126 12.7954 11.0679 12.7044 11.1056C12.6134 11.1433 12.5158 11.1627 12.4173 11.1627C12.3188 11.1627 12.2212 11.1433 12.1302 11.1056C12.0392 11.0679 11.9565 11.0126 11.8868 10.9429C11.8171 10.8733 11.7619 10.7906 11.7242 10.6995C11.6865 10.6085 11.6671 10.511 11.6671 10.4124C11.6671 10.3139 11.6865 10.2163 11.7242 10.1253C11.7619 10.0343 11.8171 9.9516 11.8868 9.88193C12.213 9.55568 12.6101 9.30905 13.0471 9.16123C13.4841 9.0134 13.9493 8.96837 14.4066 9.02962C14.8639 9.09087 15.3009 9.25676 15.6836 9.51438C16.0663 9.77201 16.3844 10.1144 16.6133 10.515C16.8421 10.9156 16.9755 11.3636 17.003 11.8241C17.0305 12.2847 16.9514 12.7453 16.7719 13.1703C16.5924 13.5953 16.3173 13.9732 15.968 14.2746C15.6187 14.5759 15.2045 14.7927 14.7578 14.9079V15.2529C14.7578 15.4518 14.6788 15.6426 14.5381 15.7833C14.3975 15.9239 14.2067 16.0029 14.0078 16.0029C13.8089 16.0029 13.6181 15.9239 13.4775 15.7833C13.3368 15.6426 13.2578 15.4518 13.2578 15.2529V14.7529C13.2578 14.0329 13.8278 13.5809 14.3388 13.4659C14.5658 13.4148 14.7779 13.3116 14.9581 13.1645C15.1384 13.0173 15.282 12.8302 15.3775 12.618C15.4729 12.4058 15.5177 12.1743 15.5083 11.9417C15.4989 11.7092 15.4355 11.4821 15.3231 11.2783C15.2108 11.0745 15.0525 10.8997 14.861 10.7676C14.6694 10.6355 14.4497 10.5498 14.2192 10.5172C13.9888 10.4847 13.754 10.5062 13.5333 10.5801C13.3126 10.654 13.1122 10.7782 12.9478 10.9429ZM14.0078 19.0029C14.273 19.0029 14.5274 18.8976 14.7149 18.71C14.9025 18.5225 15.0078 18.2681 15.0078 18.0029C15.0078 17.7377 14.9025 17.4834 14.7149 17.2958C14.5274 17.1083 14.273 17.0029 14.0078 17.0029C13.7426 17.0029 13.4882 17.1083 13.3007 17.2958C13.1132 17.4834 13.0078 17.7377 13.0078 18.0029C13.0078 18.2681 13.1132 18.5225 13.3007 18.71C13.4882 18.8976 13.7426 19.0029 14.0078 19.0029Z" fill="#694EDA"/>
</svg>
