<svg width="38" height="38" viewBox="0 0 38 38" fill="none" xmlns="http://www.w3.org/2000/svg">
<path d="M20.4247 20.5543V25.5209C21.1922 25.3914 21.9268 25.1125 22.5869 24.7001C23.5027 24.1016 23.7497 23.4689 23.7497 23.0376C23.7497 22.6063 23.5027 21.9736 22.5869 21.3751C21.9268 20.9626 21.1922 20.6837 20.4247 20.5543ZM15.8267 16.3781C15.9274 16.4826 16.0452 16.5871 16.1763 16.6897C16.5715 16.9937 17.0503 17.2293 17.5747 17.3794V12.5458C17.3471 12.6111 17.1248 12.6936 16.9097 12.7928C16.6437 12.9163 16.3967 13.0645 16.1763 13.2355C15.46 13.7903 15.1997 14.4268 15.1997 14.9626C15.1997 15.3122 15.3099 15.7036 15.5835 16.0874C15.6538 16.1843 15.7355 16.2831 15.8267 16.3781Z" fill="#694EDA"/>
<path fill-rule="evenodd" clip-rule="evenodd" d="M34.2003 18.9999C34.2003 23.0312 32.5989 26.8974 29.7483 29.748C26.8978 32.5985 23.0316 34.1999 19.0003 34.1999C14.969 34.1999 11.1028 32.5985 8.25227 29.748C5.40172 26.8974 3.80029 23.0312 3.80029 18.9999C3.80029 14.9686 5.40172 11.1025 8.25227 8.2519C11.1028 5.40135 14.969 3.79993 19.0003 3.79993C23.0316 3.79993 26.8978 5.40135 29.7483 8.2519C32.5989 11.1025 34.2003 14.9686 34.2003 18.9999ZM19.0003 7.59993C19.3782 7.59993 19.7407 7.75006 20.0079 8.0173C20.2752 8.28454 20.4253 8.64699 20.4253 9.02493V9.62533C21.566 9.81738 22.6435 10.2821 23.566 10.98C24.3754 11.607 24.9796 12.386 25.3235 13.26C25.4509 13.6091 25.4369 13.9942 25.2845 14.3331C25.132 14.672 24.8533 14.938 24.5075 15.0743C24.1618 15.2106 23.7765 15.2064 23.4338 15.0627C23.0911 14.919 22.8181 14.6471 22.673 14.305C22.4918 13.8783 22.1983 13.5086 21.8237 13.2353C21.4053 12.9192 20.9308 12.6852 20.4253 12.5456V17.6699C21.7515 17.8466 23.053 18.2779 24.1474 18.9923C25.6427 19.9689 26.5984 21.4053 26.5984 23.0393C26.5984 24.6733 25.6408 26.1097 24.1474 27.0863C23.053 27.8026 21.7515 28.232 20.4234 28.4087V28.9768C20.4234 29.3548 20.2733 29.7172 20.006 29.9845C19.7388 30.2517 19.3763 30.4018 18.9984 30.4018C18.6205 30.4018 18.258 30.2517 17.9908 29.9845C17.7235 29.7172 17.5734 29.3548 17.5734 28.9768V28.4068C16.2491 28.232 14.9476 27.8026 13.8532 27.0863C12.9374 26.4878 12.2249 25.724 11.805 24.8291C11.6447 24.4867 11.6271 24.0947 11.7559 23.7393C11.8847 23.3838 12.1494 23.0941 12.4918 22.9339C12.8343 22.7736 13.2263 22.756 13.5817 22.8848C13.9371 23.0136 14.2269 23.2783 14.3871 23.6207C14.5391 23.9494 14.8526 24.3351 15.4131 24.7018C16.0078 25.0913 16.7545 25.3725 17.5753 25.5226V20.3014C16.4346 20.1092 15.3572 19.6445 14.4346 18.9467C13.1103 17.9226 12.3503 16.4938 12.3503 14.9624C12.3503 13.4329 13.1103 12.0022 14.4346 10.98C15.3571 10.2821 16.4346 9.81738 17.5753 9.62533V9.02493C17.5753 8.64699 17.7254 8.28454 17.9927 8.0173C18.2599 7.75006 18.6224 7.59993 19.0003 7.59993Z" fill="#694EDA"/>
</svg>
