<svg width="18" height="18" viewBox="0 0 18 18" fill="none" xmlns="http://www.w3.org/2000/svg">
<path d="M1.61279 2.1499H2.60609C2.97159 2.1499 3.29051 2.39572 3.38511 2.74832L3.65959 3.77817M3.65959 3.77817C7.65189 3.66629 11.6404 4.1101 15.5104 5.09684C14.9199 6.85554 14.2183 8.56407 13.4149 10.2124H5.3753M3.65959 3.77817L5.3753 10.2124M5.3753 10.2124C4.80508 10.2124 4.25822 10.4389 3.85502 10.8421C3.45181 11.2453 3.22529 11.7922 3.22529 12.3624H14.5128M4.30029 14.5124C4.30029 14.655 4.24367 14.7917 4.14286 14.8925C4.04206 14.9933 3.90535 15.0499 3.76279 15.0499C3.62024 15.0499 3.48353 14.9933 3.38272 14.8925C3.28192 14.7917 3.22529 14.655 3.22529 14.5124C3.22529 14.3699 3.28192 14.2331 3.38272 14.1323C3.48353 14.0315 3.62024 13.9749 3.76279 13.9749C3.90535 13.9749 4.04206 14.0315 4.14286 14.1323C4.24367 14.2331 4.30029 14.3699 4.30029 14.5124ZM13.4378 14.5124C13.4378 14.655 13.3812 14.7917 13.2804 14.8925C13.1796 14.9933 13.0429 15.0499 12.9003 15.0499C12.7577 15.0499 12.621 14.9933 12.5202 14.8925C12.4194 14.7917 12.3628 14.655 12.3628 14.5124C12.3628 14.3699 12.4194 14.2331 12.5202 14.1323C12.621 14.0315 12.7577 13.9749 12.9003 13.9749C13.0429 13.9749 13.1796 14.0315 13.2804 14.1323C13.3812 14.2331 13.4378 14.3699 13.4378 14.5124Z" stroke="#694EDA" stroke-width="1.075" stroke-linecap="round" stroke-linejoin="round"/>
</svg>
