<svg width="21" height="21" viewBox="0 0 21 21" fill="none" xmlns="http://www.w3.org/2000/svg">
<path d="M14.9499 2.6001H5.84991C5.16034 2.6001 4.49902 2.87403 4.01143 3.36162C3.52383 3.84922 3.2499 4.51054 3.2499 5.2001V16.9001C3.2499 17.2449 3.38687 17.5756 3.63067 17.8193C3.87446 18.0631 4.20512 18.2001 4.54991 18.2001H6.49991C6.84469 18.2001 7.17535 18.0631 7.41915 17.8193C7.66294 17.5756 7.79991 17.2449 7.79991 16.9001V15.6001H12.9999V16.9001C12.9999 17.2449 13.1369 17.5756 13.3807 17.8193C13.6245 18.0631 13.9551 18.2001 14.2999 18.2001H16.2499C16.5947 18.2001 16.9254 18.0631 17.1692 17.8193C17.413 17.5756 17.5499 17.2449 17.5499 16.9001V5.2001C17.5499 4.51054 17.276 3.84922 16.7884 3.36162C16.3008 2.87403 15.6395 2.6001 14.9499 2.6001ZM4.54991 14.3001V9.7501H16.2499V14.3001H4.54991ZM4.54991 6.5001H16.2499V8.4501H4.54991V6.5001ZM5.84991 3.9001H14.9499C15.2947 3.9001 15.6254 4.03706 15.8692 4.28086C16.113 4.52466 16.2499 4.85532 16.2499 5.2001H4.54991C4.54991 4.85532 4.68687 4.52466 4.93067 4.28086C5.17446 4.03706 5.50512 3.9001 5.84991 3.9001ZM6.49991 16.9001H4.54991V15.6001H6.49991V16.9001ZM14.2999 16.9001V15.6001H16.2499V16.9001H14.2999ZM8.44991 12.0251C8.44991 12.2179 8.39273 12.4064 8.28559 12.5668C8.17846 12.7271 8.02618 12.8521 7.84802 12.9259C7.66987 12.9997 7.47383 13.019 7.28469 12.9814C7.09556 12.9438 6.92183 12.8509 6.78548 12.7145C6.64912 12.5782 6.55626 12.4044 6.51864 12.2153C6.48102 12.0262 6.50033 11.8301 6.57412 11.652C6.64792 11.4738 6.77289 11.3216 6.93323 11.2144C7.09356 11.1073 7.28207 11.0501 7.47491 11.0501C7.73349 11.0501 7.98149 11.1528 8.16434 11.3357C8.34719 11.5185 8.44991 11.7665 8.44991 12.0251ZM14.2999 12.0251C14.2999 12.2179 14.2427 12.4064 14.1356 12.5668C14.0285 12.7271 13.8762 12.8521 13.698 12.9259C13.5199 12.9997 13.3238 13.019 13.1347 12.9814C12.9456 12.9438 12.7718 12.8509 12.6355 12.7145C12.4991 12.5782 12.4063 12.4044 12.3686 12.2153C12.331 12.0262 12.3503 11.8301 12.4241 11.652C12.4979 11.4738 12.6229 11.3216 12.7832 11.2144C12.9436 11.1073 13.1321 11.0501 13.3249 11.0501C13.5835 11.0501 13.8315 11.1528 14.0143 11.3357C14.1972 11.5185 14.2999 11.7665 14.2999 12.0251ZM20.1499 6.5001V8.4501C20.1499 8.62249 20.0814 8.78782 19.9595 8.90972C19.8376 9.03162 19.6723 9.1001 19.4999 9.1001C19.3275 9.1001 19.1622 9.03162 19.0403 8.90972C18.9184 8.78782 18.8499 8.62249 18.8499 8.4501V6.5001C18.8499 6.32771 18.9184 6.16238 19.0403 6.04048C19.1622 5.91858 19.3275 5.8501 19.4999 5.8501C19.6723 5.8501 19.8376 5.91858 19.9595 6.04048C20.0814 6.16238 20.1499 6.32771 20.1499 6.5001ZM1.9499 6.5001V8.4501C1.9499 8.62249 1.88142 8.78782 1.75952 8.90972C1.63762 9.03162 1.47229 9.1001 1.2999 9.1001C1.12751 9.1001 0.962182 9.03162 0.840283 8.90972C0.718384 8.78782 0.649902 8.62249 0.649902 8.4501V6.5001C0.649902 6.32771 0.718384 6.16238 0.840283 6.04048C0.962182 5.91858 1.12751 5.8501 1.2999 5.8501C1.47229 5.8501 1.63762 5.91858 1.75952 6.04048C1.88142 6.16238 1.9499 6.32771 1.9499 6.5001Z" fill="#694EDA"/>
</svg>
